<svg class="prefix__animated" id="prefix__freepik_stories-astronaut-suit" xmlns="http://www.w3.org/2000/svg" viewBox="0 0 500 500" version="1.1"><style>@keyframes floating{0%,to{opacity:1;transform:translateY(0)}50%{transform:translateY(-10px)}}svg#prefix__freepik_stories-astronaut-suit:not(.prefix__animated) .prefix__animable{opacity:0}</style><g id="prefix__freepik--planet-4--inject-4" class="prefix__animable" style="transform-origin:413.71px 307.14px"><g id="prefix__elerg7v6sbt1"><circle cx="413.71" cy="307.14" r="32.1" style="transform-origin:413.71px 307.14px" class="prefix__animable" id="prefix__eltzqrjkb0i19" fill="#fd7702" transform="rotate(-45)"/></g><g id="prefix__elkg4bx2eoqcp"><g style="transform-origin:413.758px 305.21px" class="prefix__animable" id="prefix__eliv47r6gnlg" opacity=".13"><path d="M445.82 307.52v-.78-1.43c0-.3 0-.61-.07-.92-.06-.73-.15-1.47-.26-2.19a83.19 83.19 0 00-16.06.41c-10.57 1.46-16.16 7.39-28.27 8s-15.29-6.46-12-9 18.5-4.18 34-4c10.6.14 17.95.65 21.56 1-.26-1-.57-1.91-.92-2.83-.08-.23-.17-.46-.27-.68a4.07 4.07 0 00-.18-.44v-.12c-.14-.33-.29-.66-.44-1-.07-.13-.13-.27-.2-.41l-.21-.44a154.51 154.51 0 01-32.28 2.65c-12.34-.26-20.86-.81-25.84-1.22-.29.66-.57 1.35-.81 2-.14.37-.27.75-.39 1.12 0 .14-.09.27-.13.4l-.08.26c-.14.49-.28 1-.4 1.49-.05.18-.1.38-.14.57-.07.33-.14.65-.2 1 0 .12-.05.24-.07.37q-.09.45-.15.9c-.05.31-.09.62-.13.93s-.06.45-.08.68c0 .53-.09 1.08-.11 1.62a2.45 2.45 0 000 .27v2.47c0 .44 0 .88.07 1.31s.06.76.1 1.13a32 32 0 001.6 7.09c8.21-.88 29.51-3.13 39.54-3.69a124.85 124.85 0 0121.88 1.28c.25-.93.45-1.88.61-2.84a3.26 3.26 0 00.05-.33c0-.11 0-.22.06-.33s0-.41.08-.63.05-.37.07-.56v-.39c0-.29.05-.57.07-.85s0-.47 0-.7v-.84-.33zm-57.55-11.69a1.55 1.55 0 11-1.58 1.51 1.54 1.54 0 011.58-1.51zm-.93 18.09a2 2 0 112.08-2 2 2 0 01-2.08 2zm37.43-5a1.55 1.55 0 111.58-1.51 1.55 1.55 0 01-1.58 1.59zm3.14 3.85a.78.78 0 11.8-.75.78.78 0 01-.8.79z" style="transform-origin:413.758px 305.21px" id="prefix__elv46rn0mybu" class="prefix__animable" fill="#fff"/></g></g><g id="prefix__elvluqkgljz2"><g style="transform-origin:413.591px 329.9px" class="prefix__animable" id="prefix__el1vchil69edz" opacity=".25"><path d="M413.92 323.49a212.44 212.44 0 01-29.44-2.93l.09.2c0 .09.09.18.14.27a.2.2 0 000 .08 1.77 1.77 0 00.15.31c.11.23.23.46.35.69q.6 1.14 1.29 2.22l.08.12q.63 1 1.35 1.95c.08.12.17.23.26.34a32.42 32.42 0 002.85 3.23 34.65 34.65 0 003.37 2.91c.18.14.36.28.55.41.39.28.78.55 1.18.8l.32.2.12.08.23.14c.28.18.57.35.86.51.55.31 1.11.61 1.67.89 6.9-.27 13-.34 14.7.09 2 .5-2.21 1.5-7.5 2.46a32.34 32.34 0 0015-.21l.72-.19c.3-.08.6-.17.89-.27s.69-.22 1-.34a31.77 31.77 0 005.27-2.4 33 33 0 003.8-2.53l.62-.5c-1.69.14-4.12.32-7.59.54-10.47.68-27.7-.93-27.24-2.19s10.79-3 23.64-2.34c6 .33 10.92.67 14.45.94.38-.42.76-.84 1.13-1.28a33.58 33.58 0 002.33-3.17q.26-.39.51-.81c.21-.36.42-.72.63-1.1.35-.62.67-1.26 1-1.91a.36.36 0 000-.09 115.57 115.57 0 01-28.78 2.88zM396 327.3c-3-.07-5.43-.83-5.41-1.68s2.48-1.49 5.48-1.42 5.43.83 5.41 1.69-2.48 1.49-5.48 1.41z" style="transform-origin:413.591px 329.9px" id="prefix__elazrp74cczmb" class="prefix__animable" fill="#fff"/></g></g><g id="prefix__elndfzkiac7j"><g style="transform-origin:413.49px 282.698px" class="prefix__animable" id="prefix__el9z5jjnuqkzb" opacity=".13"><path d="M437.37 285.42a76.44 76.44 0 01-23.21 2.6c-9.87-.4-18.93-1.42-24.55-2.17a31.94 31.94 0 013.33-3.25 99.25 99.25 0 0016.83 3c11.21.71 22.76-2 20.81-3.39s-10.46.28-21.06-.52a121.38 121.38 0 01-13-1.76 31.26 31.26 0 015.08-2.62h.16a99 99 0 0016.67 1.25c4.16 0 7.37 0 9.85-.07l.94.5c.51.28 1 .58 1.51.89a29.72 29.72 0 012.55 1.77l.38.3.21.17.76.64.4.35.28.25c.61.56 1.21 1.15 1.78 1.76l.21.23z" style="transform-origin:413.49px 282.698px" id="prefix__el8bfz9qrpjxk" class="prefix__animable" fill="#fff"/></g></g><g id="prefix__el0uuh0darkb6"><g style="transform-origin:420.512px 309.26px" class="prefix__animable" id="prefix__el4ptrx9lvl1c" opacity=".4"><path d="M445.82 307.47v-.68a.34.34 0 000-.1v-.06-1.37c0-.33 0-.65-.07-1-.07-.81-.17-1.62-.31-2.42v-.33c0-.11 0-.21-.05-.31-.05-.29-.11-.57-.17-.85a32.28 32.28 0 00-1.37-4.71c-.14-.36-.28-.72-.43-1.07-.21-.51-.44-1-.68-1.5s-.38-.78-.58-1.16-.49-.89-.75-1.32c-.1-.18-.2-.35-.31-.51l-.24-.37a1.88 1.88 0 00-.12-.18c-.15-.24-.32-.49-.48-.72l-.17-.25-.13-.18a3.81 3.81 0 00-.24-.32c-.32-.46-.67-.91-1-1.33l-.05-.07c-.3-.36-.6-.72-.92-1.06l-.28-.32-.22-.23c-.57-.61-1.16-1.2-1.78-1.76l-.28-.25-.4-.36-.76-.63-.21-.17-.38-.3a31.64 31.64 0 00-3.2-2.18c.2.14.41.28.6.43l.64.47.38.29.21.17.76.64.4.35.28.26c.61.56 1.21 1.14 1.78 1.75l.21.24c.42.45.82.9 1.21 1.38l.05.06.13.17c.39.48.77 1 1.13 1.49l.13.17.17.25.34.51.26.39.24.38c.16.26.31.52.46.78s.4.68.58 1 .48.91.7 1.39.39.84.57 1.28.3.72.43 1.08l.21.56a32 32 0 011.33 5l.06.32a2.34 2.34 0 010 .26c.09.53.17 1.05.22 1.59 0 .29.07.6.09.9 0 .54.09 1.09.1 1.64v1.88a2.71 2.71 0 010 .29v.54c0 .66-.08 1.32-.16 2 0 .37-.09.74-.14 1.11v.21c-.09.62-.2 1.24-.33 1.84l-.12.53a31.83 31.83 0 01-3.12 8.17v.05l-.63 1.1a31.15 31.15 0 01-1.95 2.85 31.52 31.52 0 01-2.24 2.64c-.49.51-1 1-1.5 1.48a32.58 32.58 0 01-3.42 2.77 32.33 32.33 0 01-5.85 3.24c-.64.28-1.29.52-1.95.76l-1 .34c-.53.17-1.07.32-1.61.46a32.33 32.33 0 01-3.53.68 31 31 0 01-5.21.29 31.88 31.88 0 01-10.23-1.83c-.67-.24-1.34-.5-2-.79s-1.05-.48-1.56-.73-1-.53-1.51-.82l-.65-.38c.34.24.69.47 1 .68.15.11.29.19.44.28a.47.47 0 00.09.06l.15.09c.28.18.56.35.85.51a32.59 32.59 0 003.07 1.54c.66.29 1.33.56 2 .8a32.28 32.28 0 0018.79.89l.53-.14c.37-.1.73-.2 1.09-.32s.69-.22 1-.34a30.64 30.64 0 005.15-2.33 32.2 32.2 0 003.86-2.55 31.7 31.7 0 003.7-3.34q.69-.72 1.32-1.47a31.59 31.59 0 002.34-3.17c.19-.29.38-.58.56-.88s.43-.72.63-1.1c.33-.6.65-1.21.94-1.84a31.7 31.7 0 002.58-8.23l.06-.34.06-.39c0-.19.06-.38.08-.57l.06-.56c0-.13 0-.26.05-.39 0-.29.05-.57.07-.85s0-.47 0-.7v-.84z" style="transform-origin:420.512px 309.26px" id="prefix__eltln5v96r1sa" class="prefix__animable" fill="#fff"/></g></g><path d="M411.15 275.71a4.55 4.55 0 01-.62.1q-.61.07-1.77.27a32.64 32.64 0 00-6.31 1.78 32 32 0 00-8.45 5 31.39 31.39 0 00-7.71 9.38v-.23l.08.11-.06.13c-.35.67-.7 1.36-1.06 2.06s-.6 1.47-.91 2.22a28.41 28.41 0 00-1.59 7l-.1.86v.86c0 .57 0 1.13-.05 1.69s.05 1.11.08 1.66v.82c0 .27.07.53.1.8a33.32 33.32 0 003.2 10.85 35.46 35.46 0 004.13 6.45c.58.71 1.07 1.21 1.38 1.58a4.87 4.87 0 01.47.56 4.76 4.76 0 01-.53-.5c-.33-.35-.85-.84-1.44-1.53a32.55 32.55 0 01-7.6-17.37c0-.26-.07-.53-.11-.81v-.82l-.09-1.68v-2.59l.09-.88a29 29 0 011.61-7.1c.31-.76.58-1.53.92-2.25l1.08-2.09v.23l-.09-.11.07-.12a31.48 31.48 0 0116.44-14.42 30.59 30.59 0 016.39-1.68c.77-.1 1.37-.17 1.78-.19a2.75 2.75 0 01.63 0z" style="transform-origin:396.67px 302.685px" id="prefix__eluo3picz5h8r" class="prefix__animable" fill="#fff"/></g><g id="prefix__freepik--planet-3--inject-4" class="prefix__animable" style="transform-origin:141.618px 405.54px"><g id="prefix__elbs5l2kcefee"><circle cx="141.08" cy="405.54" r="21.94" style="transform-origin:141.08px 405.54px" class="prefix__animable" id="prefix__elloo1istzpae" fill="#ee5a24" transform="rotate(-27.29)"/></g><g id="prefix__eloilaxuocju"><g style="transform-origin:132.435px 387.795px" class="prefix__animable" id="prefix__el1sdln91sjil" opacity=".3"><path d="M139.2 383.62c.1.43.18.81.25 1.08a4.42 4.42 0 00-3 1.34c-.67.9-.55 2.14-.82 3.23a1.16 1.16 0 01-.53.81 1.28 1.28 0 01-.82 0c-1.59-.35-3.42-.86-4.7.14-.75.58-1.22 1.62-2.16 1.74s-1.7-.89-2-1.86a21.93 21.93 0 0113.78-6.48z" id="prefix__elut5jpmxzhtk" class="prefix__animable" style="transform-origin:132.435px 387.795px"/></g></g><g id="prefix__el2p2jrrgcded"><g style="transform-origin:131.569px 392.597px" class="prefix__animable" id="prefix__eluwhx12opx8p" opacity=".3"><path d="M130.33 394.66a.22.22 0 01-.14 0c-2-1 .79-4.41 2.43-4.12a1.29 1.29 0 01.73 2.08c-.66 1-2 1.11-2.85 2a.32.32 0 01-.17.04z" id="prefix__el80qlg255qjb" class="prefix__animable" style="transform-origin:131.569px 392.597px"/></g></g><g id="prefix__eleh3dra4nyba"><g style="transform-origin:125.866px 395.548px" class="prefix__animable" id="prefix__elfm9609w3ss" opacity=".3"><path d="M124.87 397.69a.71.71 0 01-.73-.36 2.52 2.52 0 01-.09-2.84c1-1.45 3.69-1.6 4 .43a1.61 1.61 0 01-1 1.79c-.39.13-.82.09-1.19.24a3 3 0 00-.81.58.76.76 0 01-.18.16z" id="prefix__eluk233a4j84m" class="prefix__animable" style="transform-origin:125.866px 395.548px"/></g></g><g id="prefix__elwt3yj2qtg8"><g style="transform-origin:124.188px 402.751px" class="prefix__animable" id="prefix__ely9poeqpopl" opacity=".3"><path d="M124.87 404c-.3 0-.59-.26-.86-.15s-.33.46-.59.48-.38-.23-.44-.46a3 3 0 01.27-2.16 1 1 0 01.25-.31 2 2 0 01.9-.23 1.11 1.11 0 01.92.69 2.47 2.47 0 01.15 1.18c-.02.44-.19.96-.6.96z" id="prefix__elbh167u3wlwg" class="prefix__animable" style="transform-origin:124.188px 402.751px"/></g></g><g id="prefix__elo9vmzm7xgtp"><g style="transform-origin:129.386px 402.661px" class="prefix__animable" id="prefix__elk1toq4mof2" opacity=".3"><path d="M127.5 400.81c1.17-.93 3 .12 3.7 1.12.57.79 1 3.14-.72 2.93a2 2 0 01-1.41-.9 4 4 0 00-.64-1l-.07-.06c-.34-.23-.8-.3-1.07-.6a1.05 1.05 0 01.21-1.49z" id="prefix__elh4a9y1ithlh" class="prefix__animable" style="transform-origin:129.386px 402.661px"/></g></g><g id="prefix__elcuukvd9hcjg"><g style="transform-origin:127.11px 404.329px" class="prefix__animable" id="prefix__elynb1j63p0hb" opacity=".3"><path d="M127.76 404.49a.67.67 0 01-.19.53.57.57 0 01-.44.1.87.87 0 01-.66-1 .85.85 0 01.86-.59 1.49 1.49 0 01.43.96z" id="prefix__el69kgqbgbs3v" class="prefix__animable" style="transform-origin:127.11px 404.329px"/></g></g><g id="prefix__eluaypma0r8fj"><g style="transform-origin:127.405px 403.485px" class="prefix__animable" id="prefix__elseym8cdwaik" opacity=".3"><path d="M127.56 403.55a.86.86 0 00-.23-.05l-.08-.08z" id="prefix__ellixn0r3ysi" class="prefix__animable" style="transform-origin:127.405px 403.485px"/></g></g><g id="prefix__ells81vywzejm"><g style="transform-origin:120.46px 401.43px" class="prefix__animable" id="prefix__elx4sd3me77d" opacity=".3"><path d="M121.49 398.34a2.08 2.08 0 01.19 1.48 7.86 7.86 0 01-.64 1.08c-.61 1.23.21 2.94-.7 4a2.27 2.27 0 01-1.16.62 21.82 21.82 0 011.57-8.18 3.15 3.15 0 01.74 1z" id="prefix__elqh7a2lz3k28" class="prefix__animable" style="transform-origin:120.46px 401.43px"/></g></g><g id="prefix__elb6qh66ytn7g"><g style="transform-origin:122.225px 409.773px" class="prefix__animable" id="prefix__eldl4if3axovl" opacity=".3"><path d="M120.71 413.51a21.78 21.78 0 01-1.42-5.84c1.13-1 2.14-1.86 3.86-1.58a2.31 2.31 0 012 1.75 3.44 3.44 0 01-.18 1.38c-.14.49-.28 1-.41 1.46a1.33 1.33 0 01-.26.55c-.43.45-1.18 0-1.8.12a1.62 1.62 0 00-1.11.77 7.23 7.23 0 00-.59 1.26z" id="prefix__eltum30uwkx3f" class="prefix__animable" style="transform-origin:122.225px 409.773px"/></g></g><g id="prefix__el7xeyj035t4d"><g style="transform-origin:128.161px 410.17px" class="prefix__animable" id="prefix__elcwj2z9xuudk" opacity=".3"><path d="M127.5 411.65a3.36 3.36 0 01-.09-.9 6.63 6.63 0 00-.38-1.22 1.24 1.24 0 01.14-1.21.46.46 0 01.34-.16.59.59 0 01.37.18 7.07 7.07 0 011.45 2.08l-.21-.25a1.65 1.65 0 01.27.86 1.2 1.2 0 01-.72 1.09.93.93 0 01-1.17-.47z" id="prefix__el748t4tvfhbr" class="prefix__animable" style="transform-origin:128.161px 410.17px"/></g></g><g id="prefix__elipm4cqlkftq"><g style="transform-origin:149.762px 389.812px" class="prefix__animable" id="prefix__el779nsbaivl5" opacity=".3"><path d="M150.41 391a1.13 1.13 0 00-.4-.22c-.43-.1-.75.4-1.17.54a1 1 0 01-1.15-.5c-1.19-1.92 1.63-3.24 3.17-2.47s1.97 4.47-.45 2.65z" id="prefix__el1kpi8mt0hon" class="prefix__animable" style="transform-origin:149.762px 389.812px"/></g></g><g id="prefix__el70fcj14bztm"><g style="transform-origin:152.557px 404.334px" class="prefix__animable" id="prefix__el8cifbybcvwv" opacity=".3"><path d="M147.78 401.73a9.35 9.35 0 01-.41-2.17 3 3 0 01.28-1.73 3.16 3.16 0 012.65-1.2 4.26 4.26 0 012.52.43 9.61 9.61 0 011.27 1.12c.68.64 1.51 1.11 2.21 1.74a3.83 3.83 0 011.11 1.59 7.71 7.71 0 011.2 5 2.93 2.93 0 01-.89 2c-1.09.88-2.82.25-4 1-1.06.62-1.48 2.13-2.65 2.49s-2.25-.59-3-1.51c-1.07-1.29-2-3-1.44-4.56.4-1.05 1.45-1.85 1.45-3a4.09 4.09 0 00-.3-1.2z" id="prefix__elj1dmzhlx95" class="prefix__animable" style="transform-origin:152.557px 404.334px"/></g></g><g id="prefix__elxrkfonosz7t"><g style="transform-origin:157.538px 397.797px" class="prefix__animable" id="prefix__el7hf7vcj0jem" opacity=".3"><path d="M158.39 399l-1.58-1a1.16 1.16 0 01-.4-.36.74.74 0 01.44-1 1.18 1.18 0 011.15.29 3.35 3.35 0 01.73 1l-.39-.46a1.43 1.43 0 01.05 1.53z" id="prefix__eld2sj061owj" class="prefix__animable" style="transform-origin:157.538px 397.797px"/></g></g><g id="prefix__elbrjo3xjtj5"><g style="transform-origin:159.624px 402.186px" class="prefix__animable" id="prefix__el4wxbuolquu" opacity=".3"><path d="M160.44 403c-.09.32-.48.58-.77.41a.81.81 0 01-.3-.46l-.51-1.34a.76.76 0 01-.06-.44.44.44 0 01.5-.25.84.84 0 01.48.33 3.56 3.56 0 01.62 1.59l-.11-.83a1.71 1.71 0 01.15.99z" id="prefix__elymej3jj5y5c" class="prefix__animable" style="transform-origin:159.624px 402.186px"/></g></g><g id="prefix__elbzvpvpr4w7p"><g style="transform-origin:130.915px 398px" class="prefix__animable" id="prefix__elc25nkao1ooh" opacity=".3"><path d="M130.61 398.5a.59.59 0 01.61-1 .59.59 0 01-.61 1z" id="prefix__elf5qvafja876" class="prefix__animable" style="transform-origin:130.915px 398px"/></g></g><g id="prefix__elnok0q1hg2p"><g style="transform-origin:132.21px 395.655px" class="prefix__animable" id="prefix__el3axrbw0obnh" opacity=".3"><path d="M132.6 395a.76.76 0 01-.78 1.31.76.76 0 01.78-1.31z" id="prefix__elltk8qx9hz7" class="prefix__animable" style="transform-origin:132.21px 395.655px"/></g></g><g id="prefix__ely0e0vklb0ok"><g style="transform-origin:134.382px 400.286px" class="prefix__animable" id="prefix__elj5dynm8sgac" opacity=".3"><path d="M133.09 401.36a3.43 3.43 0 01.35-4.22c.69-.7 1.81-1.05 2.47-.13a2.78 2.78 0 01-.19 2.93c-.4.75-.21 1.09 0 1.85a2.66 2.66 0 010 1.37 1.25 1.25 0 01-1.95.72c-.63-.52-.66-1.61-.68-2.52z" id="prefix__elyxx28zehkci" class="prefix__animable" style="transform-origin:134.382px 400.286px"/></g></g><g id="prefix__el7lg05g7iznt"><g style="transform-origin:129.187px 407.251px" class="prefix__animable" id="prefix__elygusod00ud" opacity=".3"><path d="M128.26 405.81a3.72 3.72 0 011.7.61 1.88 1.88 0 01.18.12 1.31 1.31 0 01.6 1.63 1.07 1.07 0 01-1.5.36 2.29 2.29 0 01-.58-.62 3.06 3.06 0 00-.79-.73c-.55-.37-.39-1.47.39-1.37z" id="prefix__elflmxaahjda5" class="prefix__animable" style="transform-origin:129.187px 407.251px"/></g></g><g id="prefix__el9mnpcc94xe"><g style="transform-origin:131.88px 406.148px" class="prefix__animable" id="prefix__elm7chlqfkooo" opacity=".3"><path d="M131.55 406.58a.64.64 0 01-.2-.38.51.51 0 01.75-.56.6.6 0 01.29.73.51.51 0 01-.84.21z" id="prefix__el1eq6kp55ja9" class="prefix__animable" style="transform-origin:131.88px 406.148px"/></g></g><g id="prefix__el6xzrisb72fa"><g style="transform-origin:144.628px 401.843px" class="prefix__animable" id="prefix__elswxu3mdi63" opacity=".3"><path d="M144.22 404.49c-1.05-.34-1.13-1.49-1.24-2.41s-.37-2 .46-2.64a1.7 1.7 0 012.42.55 3.52 3.52 0 01.43 2.76 1.48 1.48 0 01-.2.44 2.5 2.5 0 01-.07.26 1.48 1.48 0 01-1.8 1.04z" id="prefix__el81qrxfeif2j" class="prefix__animable" style="transform-origin:144.628px 401.843px"/></g></g><g id="prefix__elrjjrxniweji"><g style="transform-origin:144.649px 406.526px" class="prefix__animable" id="prefix__elvvhn23qi8fj" opacity=".3"><path d="M143.91 406.93a.69.69 0 010-.25v-.05a.79.79 0 01.21-.82.69.69 0 011 0 1 1 0 010 1.44.73.73 0 01-1.21-.32z" id="prefix__el61qpyi52qej" class="prefix__animable" style="transform-origin:144.649px 406.526px"/></g></g><g id="prefix__elijn3cnb0n3q"><g style="transform-origin:141.314px 404.546px" class="prefix__animable" id="prefix__el7g19teahybo" opacity=".3"><path d="M141.82 407.1c-.77-.09-1-.78-1.27-1.41a11.73 11.73 0 01-.75-2 1.47 1.47 0 01.51-1.55 1 1 0 011.4.33 5 5 0 01.48 1.89 2.68 2.68 0 00.07.27c.74.67 1.06 2.64-.44 2.47z" id="prefix__elyi9jq6pj0ld" class="prefix__animable" style="transform-origin:141.314px 404.546px"/></g></g><g id="prefix__el59twjo988ol"><g style="transform-origin:161.33px 398.605px" class="prefix__animable" id="prefix__elcebyizxt6fd" opacity=".3"><path d="M162.83 402.29a4.27 4.27 0 01-2.39-2 5.19 5.19 0 01-.24-4.37 2.16 2.16 0 01.17-1 22 22 0 012.46 7.37z" id="prefix__elh69v2xstcnl" class="prefix__animable" style="transform-origin:161.33px 398.605px"/></g></g><g id="prefix__el2ol8nbrae6r"><g style="transform-origin:153.49px 414.067px" class="prefix__animable" id="prefix__elxl3v366spw" opacity=".3"><path d="M154.3 415.54h-.12a2.54 2.54 0 01-2 .92.58.58 0 01-.88 0 1.35 1.35 0 01-.36-.95 1.65 1.65 0 01.09-1.13c.31-.67.88-.89 1.46-1.28a7.19 7.19 0 00.7-.85 2.68 2.68 0 01.36-.52 1.33 1.33 0 011.79.2l.16.2c.3.09.38.46.39.79a8.22 8.22 0 01.21.82l-.21-.55a3.8 3.8 0 01-.28 1.54 1.4 1.4 0 01-1.31.81z" id="prefix__elxfyrdhbyivp" class="prefix__animable" style="transform-origin:153.49px 414.067px"/></g></g><g id="prefix__elswpfvcbq60t"><g style="transform-origin:146.876px 395.87px" class="prefix__animable" id="prefix__elgx2q2btw9t" opacity=".3"><path d="M147.45 394.38a.87.87 0 01.66 1.38 2 2 0 01-.66.54l-.19.11-.06.13a1.54 1.54 0 01-.43.64c-.46.38-1.36.14-1.29-.57a1.72 1.72 0 01.51-1.11.43.43 0 010-.07 1.52 1.52 0 011.46-1.05z" id="prefix__elrxfkne23c7q" class="prefix__animable" style="transform-origin:146.876px 395.87px"/></g></g><g id="prefix__el1t8rz3hnhgw"><g style="transform-origin:152.202px 419.701px" class="prefix__animable" id="prefix__elko8rvx0lucj" opacity=".3"><path d="M149.39 420.55c.24-1.1 1.52-1.13 2.33-1.58s1-1.8 2.12-1.86a1.15 1.15 0 011.15 1.44 3.84 3.84 0 01-1.27 2.16 3.09 3.09 0 01-3.15 1.55 1.54 1.54 0 01-1.18-1.71z" id="prefix__elp71c4x7ctqn" class="prefix__animable" style="transform-origin:152.202px 419.701px"/></g></g><g id="prefix__elx31w9ezhwrl"><g style="transform-origin:156.449px 416.191px" class="prefix__animable" id="prefix__eldztsrkzhnkn" opacity=".3"><path d="M156.52 415.07a.62.62 0 011.12.16 2.93 2.93 0 010 1.38c-.13.41-.48.94-1 .93h-.1a1.11 1.11 0 01-.72 0 1.08 1.08 0 01-.55-1.43 1.12 1.12 0 01.56-.61c.24-.19.53-.19.69-.43z" id="prefix__elvmfhtj1tnyi" class="prefix__animable" style="transform-origin:156.449px 416.191px"/></g></g><g id="prefix__elk6h37mo4m3"><g style="transform-origin:157.251px 412.873px" class="prefix__animable" id="prefix__el811bnfc5s8n" opacity=".3"><path d="M156.8 412.92a.49.49 0 01.26-.48.41.41 0 01.49.07.52.52 0 01.13.53.45.45 0 01-.88-.12z" id="prefix__el3141dzdtxet" class="prefix__animable" style="transform-origin:157.251px 412.873px"/></g></g><g id="prefix__el4hrsdd4dzqz"><g style="transform-origin:160.86px 413.42px" class="prefix__animable" id="prefix__elbe3huy3dlbb" opacity=".3"><path d="M158.94 417.6c.79-1.53.55-2.7.26-4.31a4.21 4.21 0 01.14-2.58c.63-1.38 2.09-1.92 3.52-2.2a22 22 0 01-2.93 8.27c-.33.54-.67 1.05-1 1.55a.93.93 0 01.01-.73z" id="prefix__elsd5cztycdcs" class="prefix__animable" style="transform-origin:160.86px 413.42px"/></g></g><g id="prefix__el6ijd0vn7jpe"><g style="transform-origin:161.377px 406.533px" class="prefix__animable" id="prefix__elatbpiljpacv" opacity=".3"><path d="M161.06 407.72a.89.89 0 01-1.17-.34 1.06 1.06 0 01-.17-.26.84.84 0 01.37-1 1.75 1.75 0 01.56-.25 5.48 5.48 0 012.43-.62c0 .72 0 1.43-.07 2.15a4.92 4.92 0 00-1.95.32z" id="prefix__elhy76oqpfo3" class="prefix__animable" style="transform-origin:161.377px 406.533px"/></g></g><g id="prefix__elm6d1y5r4y6p"><g style="transform-origin:161.566px 403.738px" class="prefix__animable" id="prefix__elbcgmpy7xria" opacity=".3"><path d="M161.25 403.15a.48.48 0 01.85 0 1.42 1.42 0 01.08.18v.06a.6.6 0 010 .47.84.84 0 01-.16.4.49.49 0 01-.13.12.27.27 0 01-.07.08.43.43 0 01-.6 0 1 1 0 01-.31-.84.71.71 0 01.34-.47z" id="prefix__ele2diacyplpn" class="prefix__animable" style="transform-origin:161.566px 403.738px"/></g></g><g id="prefix__elyqnvjhqufhe"><g style="transform-origin:157.668px 410.076px" class="prefix__animable" id="prefix__elxtgu6wg1ad" opacity=".3"><path d="M158.84 409.93a.89.89 0 01-.53.31c-.35.68-1.2 1.27-1.79.63a.79.79 0 01.2-1.16 6.52 6.52 0 011.48-.65.55.55 0 01.64.87z" id="prefix__el9cjmp937fho" class="prefix__animable" style="transform-origin:157.668px 410.076px"/></g></g><g id="prefix__elbgfpg4m9ggu"><g style="transform-origin:126.238px 398.851px" class="prefix__animable" id="prefix__elv4x5dohplih" opacity=".3"><path d="M124.5 398.63a1.21 1.21 0 011.24-.5 2.69 2.69 0 001.4-.21.62.62 0 01.83.85 2.06 2.06 0 01-1.44 1 1.69 1.69 0 01-1.49-.22 1.51 1.51 0 01-.36-.18.56.56 0 01-.18-.74z" id="prefix__eleulrcbkofc" class="prefix__animable" style="transform-origin:126.238px 398.851px"/></g></g><g id="prefix__elmwrgarslswq"><g style="transform-origin:123.313px 392.855px" class="prefix__animable" id="prefix__elo0bqps2i2uo" opacity=".3"><path d="M123.51 393.73a2.71 2.71 0 01-1.41.82c.07-.13.14-.26.22-.39a22.18 22.18 0 012.19-3v.07a2.88 2.88 0 01-1 2.5z" id="prefix__ele591q30hvxw" class="prefix__animable" style="transform-origin:123.313px 392.855px"/></g></g><g id="prefix__el21o1n0s297aj"><g style="transform-origin:133.377px 416.648px" class="prefix__animable" id="prefix__eljf2212r0uqa" opacity=".3"><path d="M129.53 417.39c-.14-.79.69-1.34 1.35-1.52 1-.26 1.85 0 2.73-.6a3.81 3.81 0 012.29-1 1.43 1.43 0 011.32 1.11 1.75 1.75 0 01-.52 1.53 2.78 2.78 0 01-1 1.41 3.5 3.5 0 01-3.54.4c-1.08.17-2.43-.19-2.63-1.33z" id="prefix__els36g065kkv" class="prefix__animable" style="transform-origin:133.377px 416.648px"/></g></g><g id="prefix__eli50m6vypsa"><g style="transform-origin:133.227px 414.113px" class="prefix__animable" id="prefix__elgj9vlghbqqq" opacity=".3"><path d="M132.46 414.75a.83.83 0 01-.07-1 1 1 0 011.11-.46.63.63 0 01.5.2c.51.54-.05 1.32-.65 1.44a1 1 0 01-.89-.18z" id="prefix__el17plk0qywn6" class="prefix__animable" style="transform-origin:133.227px 414.113px"/></g></g><g id="prefix__elpi97vzxs84f"><g style="transform-origin:137.802px 417.693px" class="prefix__animable" id="prefix__elphnotpi0wai" opacity=".3"><path d="M137.4 418.58a.53.53 0 01-.39-.41 1.36 1.36 0 01.38-1.21.58.58 0 011 .28.76.76 0 01.15.87 1 1 0 01-1.14.47z" id="prefix__elganraqxayzt" class="prefix__animable" style="transform-origin:137.802px 417.693px"/></g></g><g id="prefix__elodfr9cqy4z"><g style="mix-blend-mode:multiply;transform-origin:136.2px 406.016px" class="prefix__animable" id="prefix__el0dro2su5rmag" opacity=".2"><path d="M134.76 384.57a21.66 21.66 0 00-6.73 7 21.94 21.94 0 0025.17 32.3 21.94 21.94 0 11-18.44-39.32z" id="prefix__eltqlgxjryt6b" class="prefix__animable" style="transform-origin:136.2px 406.016px"/></g></g><path d="M168.56 399.12a2.27 2.27 0 11-.15.07" style="transform-origin:169.444px 401.211px" id="prefix__el24hdvvvmmk9" class="prefix__animable" fill="#455a64"/><path d="M164.14 394a1.32 1.32 0 11-.08 0" style="transform-origin:164.1px 395.32px" id="prefix__el0tscb6u5qbof" class="prefix__animable" fill="#455a64"/></g><g id="prefix__freepik--planet-2--inject-4" class="prefix__animable" style="transform-origin:85.48px 278.22px"><g id="prefix__elrc8384s0w4s"><circle cx="85.48" cy="278.22" r="47.62" style="transform-origin:85.48px 278.22px" class="prefix__animable" id="prefix__el7a3h0m7wlz9" fill="#3498db" transform="rotate(-85.87)"/></g><g id="prefix__el90f2x23w51v"><g style="transform-origin:96.6449px 288.317px" class="prefix__animable" id="prefix__el93y49c4p0w" opacity=".3"><path d="M106.17 302.43c-1.22 1.82-1.47 4.12-1.82 6.29s-1 4.49-2.62 5.9-4.68 1.3-5.56-.71c-.48-1.1-.21-2.38-.46-3.55-.34-1.52-1.51-2.7-2.06-4.16a11.81 11.81 0 01-.47-3.94C93.05 295 91.4 287.38 86.6 282a4.76 4.76 0 00-2.1-1.55 2.69 2.69 0 00-2.8.95 11.57 11.57 0 01-1.09 1.6c-1 1-2.85.24-3.53-1a7.41 7.41 0 01-.44-4.21c.17-1.77.33-3.53.5-5.3a4.54 4.54 0 01.8-2.62c.86-1 2.38-1 3.43-1.79 1.37-1 1.57-3 2.45-4.49s3.56-2.08 3.94-.4c2.91-6.16 9.08 3.11 12.82 2.47 1.09-.19 2.15-.71 3.24-.54 1.92.29 2.89 2.47 3.53 4.34l3.15 9.33c.4 1.18.92 2.5 2.07 3 .87.35 1.89.1 2.78.44 2.33.89 1.52 4.64-.38 6.28s-4.56 2.65-5.48 5c-.7 1.78-.18 3.88-.93 5.63-.56 1.26-1.64 2.16-2.39 3.29z" id="prefix__el6nt9od31lat" class="prefix__animable" style="transform-origin:96.6449px 288.317px"/></g></g><g id="prefix__ella2dkoacp0e"><g style="transform-origin:53.4119px 295.74px" class="prefix__animable" id="prefix__elli5m6uenn4" opacity=".3"><path d="M55.89 315.51c.48.4 1 .77 1.46 1.14s.78.58 1.18.86.8.56 1.21.82l.87.55-.12-.24c-1-2.36-1-5.75 1.23-6.89a4.94 4.94 0 001.29-.67c1-1 .21-3 1.23-3.93.57-.53 1.46-.48 2.16-.79 1.27-.58 1.7-2.23 1.61-3.64a24.12 24.12 0 01-.35-4.22c.28-2.13 1.93-4.28 1-6.21-1-2.16-4.09-1.85-6.23-2.84-3-1.38-3.88-5.19-5.81-7.9-1.74-2.42-5.82-5.11-8.95-4.42a3.85 3.85 0 00-3.32 3.55l-.29-.05c-.84-.1-1.82-.16-2.27-.87s0-2.05-.53-2.86a4.27 4.27 0 00-1.18-.92c-.4-.3-.75-.86-.49-1.3s.74-.45 1-.79a.79.79 0 000-1c-.85-1.05-1.83 1.05-2.31 1.55q-.21.21-.39.36a2.45 2.45 0 000 .27V278.25a1.93 1.93 0 000 .34 50 50 0 002.76 15.61 45.65 45.65 0 002.77 6.32c.46.89 1 1.77 1.49 2.63.65 1.06 1.48 2.23 2.22 3.23s1.4 1.82 2.16 2.73c1.06 1.25 2.18 2.39 3.35 3.53s2.15 1.91 3.28 2.82" id="prefix__el5x0pw3e7g2m" class="prefix__animable" style="transform-origin:53.4119px 295.74px"/></g></g><g id="prefix__el1x6woemnux3"><g style="transform-origin:108.361px 261.299px" class="prefix__animable" id="prefix__elejnh6pvxah7" opacity=".3"><path d="M130.23 261.89a10.31 10.31 0 01-.48-1.52c-1.8-5.28-6.42-7.71-9.29-11.84-.94-1.34-1.66-2.45-3.35-2.73-2.48-.42-3.76 1-5.5-1.42-.47-.65-1.3-1.26-2-.88.17.51.36 1 .53 1.56a.76.76 0 01.06.34c0 .36-.57.45-.87.25a3.22 3.22 0 01-.66-.88 2.41 2.41 0 00-3.58-.34 1.43 1.43 0 00-.78-1.15 1.64 1.64 0 01-2.07 1.32c-.14-.47.68-.54 1-.94s0-.9-.38-1.22a5.23 5.23 0 00-3.27-1.34 4.49 4.49 0 01-2.25-.29c-.38-.24-.65-.63-1-.86-.83-.49-1.88-.06-2.74.41a5.37 5.37 0 00-2.78 2.73c-.44 1.28.46 3 1.78 2.87a2.46 2.46 0 011-.1c.47.13.67.69.71 1.18a3.52 3.52 0 00.2 1.45c.22.43.91.65 1.17.25a2.7 2.7 0 00.42-2.46 3.35 3.35 0 01.2-2.52c.51-.69 2-.45 1.84.41-.07.51-.64.87-.62 1.39s.64.81 1.15.79a5.34 5.34 0 011.54-.06c.5.13.9.8.53 1.17-.64.72-2.25-.54-2.59.36a2.6 2.6 0 000 .74c-.07.75-1 1-1.74 1.1a4 4 0 01-2.2-.18 1.44 1.44 0 01-.73-1.88.84.84 0 00-1.16.41 2.55 2.55 0 00-.1 1.4c-.78-.18-1.49.49-1.94 1.15s-.91 1.45-1.67 1.68-1.83-.1-2.24.6c-.53.92 1 2.11.43 3-.31.51-1 .49-1.61.64A2.54 2.54 0 0084 260.4a2.93 2.93 0 004.2 0 13.38 13.38 0 001.66-2.84c.56-.94 1.62-1.79 2.65-1.47a3 3 0 011.08.7l1.5 1.32a1.42 1.42 0 01.64 1.06c0 .35-.3.61-.42.94-.33.92 1 1.82 1.82 1.33a1.89 1.89 0 00.39-2.61c-.78-1.12-2.55-1.69-2.49-3.06.92-.74 2.34.06 2.86 1.14s.51 2.33 1 3.44 1.66 2.1 2.71 1.58c-.26-1-.51-1.91-.77-2.86.67-.5 1.41 1 2.21.75.49-.15.55-.86.35-1.34a6.87 6.87 0 01-.66-1.4 1.57 1.57 0 011.83-1.6 2.37 2.37 0 011.74 2 4.14 4.14 0 00.23 1.11c.34.74 1.24 1 2 1.29s1.51 1.09 1.19 1.84c-.15.33-.49.64-.37 1s.54.44.54.76-.23.36-.43.44c-.5.2-1 .27-1.53.5a1.4 1.4 0 00-.9 1.24c0 .77 1 1.15 1.36 1.79a9.59 9.59 0 01.58 2.12 7.87 7.87 0 001.12 1.69c1.24 1.76 1.51 4 2.1 6.07.26.94.74 2 1.68 2.17a2.85 2.85 0 001.51-.28 9 9 0 003.73-2.21 3.21 3.21 0 00.34-4 .77.77 0 00-.46-.31 1.39 1.39 0 00-.71.25 2 2 0 01-2.1-.49 6 6 0 01-1.23-1.93c-.37-.77-.73-1.54-1.1-2.32a1.31 1.31 0 011.62.18 8.88 8.88 0 011.09 1.4 7 7 0 004.74 2.33 4.42 4.42 0 011.34.3c1.33.64 1.69 2.65 3.1 3.1a9.54 9.54 0 011.2.29 2.23 2.23 0 011 1.53 24.77 24.77 0 00.85 3.42 3.1 3.1 0 002.53 2.1 2.25 2.25 0 001.77-.7L133 282c.07-1.06.22-1.95.23-3 0-.22-.07-.51-.08-.74v-2.06c0-.7-.12-1.53-.18-2.22s-.12-1-.19-1.53-.19-1.18-.28-1.75c-.26-1.72-1-4.81-1.44-6.47" id="prefix__elrqum845b0t" class="prefix__animable" style="transform-origin:108.361px 261.299px"/></g></g><g id="prefix__elm9e0hbkhd8"><g style="transform-origin:112.875px 302.885px" class="prefix__animable" id="prefix__el52bd9mwu395" opacity=".3"><path d="M115 304.55c-.77.1-1.67-.3-2.26.22a2.5 2.5 0 00-.57 1.23 2.66 2.66 0 01-1.11 1.51 1.6 1.6 0 01-1.78-.06 1.24 1.24 0 01-.22-1.7c.19-.22.46-.34.67-.54 1-1 .35-2.8 1.14-4 .47-.69 1.2-1.38 1.71-2.07.39-.53.54-1 1.25-1.09 3.17-.55 4.48 6.07 1.17 6.5z" id="prefix__elxhp2cb7br3" class="prefix__animable" style="transform-origin:112.875px 302.885px"/></g></g><g id="prefix__elu20dxob74go"><g style="transform-origin:77.7129px 238.134px" class="prefix__animable" id="prefix__el9rj892vgfq8" opacity=".3"><path d="M74.59 242.19c-1 .56-1.46 1.65-2.2 2.48s-2.06 1.42-2.91.71a2.06 2.06 0 01-.63-1.44 3.66 3.66 0 01.54-2.22c.42-.68 1-1.21 1.41-1.93a1.6 1.6 0 00-.42-2.11c-.38-.19-.87-.12-1.21-.38-.61-.47-.15-1.56.57-1.82a5.27 5.27 0 012.27 0c2.76.21 4.82-1.61 6.92-3.12 1.63-1.17 5.09-2.54 6.95-1.3a1.5 1.5 0 01.31 2.29c-.32.24-.76.29-1 .56s-.41.85-.62 1.29c-.54 1.14-2 1.53-2.55 2.68-.3.7-.18 1.57-.64 2.17a2.57 2.57 0 01-1.56.76l-3.62.84a5.43 5.43 0 00-1.61.54z" id="prefix__els4qmjgl96z" class="prefix__animable" style="transform-origin:77.7129px 238.134px"/></g></g><g id="prefix__el4g7uzwkcm3t"><g style="transform-origin:51.5754px 256.978px" class="prefix__animable" id="prefix__elsa8gpq8bta" opacity=".3"><path d="M41 263.55a2.18 2.18 0 013.12.13 3.42 3.42 0 01.22 2.49c-.19 1.14-.37 2.27-.57 3.41a1.89 1.89 0 000 1c.32.72 1.49.6 1.94 0a3.19 3.19 0 00.3-2.32 4.49 4.49 0 010-2.36c.78-1.82 3.46-1.52 5-2.69a8.64 8.64 0 002-3c.58-1.08 1.56-2.15 2.76-2.09.41 0 .81.18 1.22.17a1.66 1.66 0 001.07-2.66 3.12 3.12 0 01-.52-.57 1 1 0 01.39-1.2 2.83 2.83 0 011.27-.4l3.07-.46c1.13-.16 2.58-.74 2.43-1.89-.12-1-1.44-1.45-1.62-2.44a3.39 3.39 0 00-.12-.72c-.31-.64-1.24-.4-1.84-.06a1.47 1.47 0 00-2.24-.76c-.61.5-.69 1.39-.91 2.15-.52 1.84-2 3.23-3.37 4.51a2.77 2.77 0 01-1.62.91c-.63 0-1.28-.67-1-1.23.2-.38.74-.6.7-1s-1-.51-1.17-1c.38-1.52 2.1-2.13 3.43-2.93a8.37 8.37 0 003.51-4.3 1.14 1.14 0 00.06-.9c-.19-.38-.7-.45-1.13-.46-1 0-2.27.1-2.66 1.06a12.46 12.46 0 00-.19 1.64c-.37 1.59-2.53 1.75-3.85 2.68a11.79 11.79 0 01-1.5 1.16 5.61 5.61 0 01-2 .31h-.36c-.43.58-.83 1.18-1.23 1.78s-.77 1.23-1.14 1.85a48.58 48.58 0 00-4.24 9.36c-.39 1.14-.73 2.31-1 3.49s-.55 2.39-.77 3.61a13.89 13.89 0 00.9-3.06 5.61 5.61 0 011.66-3.21z" id="prefix__elgkakqvcszzs" class="prefix__animable" style="transform-origin:51.5754px 256.978px"/></g></g><g id="prefix__eljjpht111xo"><g style="transform-origin:96.3556px 282.005px" class="prefix__animable" id="prefix__elhp3audh6uz" opacity=".4"><path d="M133.17 278.43v-1a.76.76 0 000-.15v-.09c0-.35 0-.69-.06-1s0-.65-.06-1c0-.49-.09-1-.14-1.45a42.21 42.21 0 00-.54-3.55c0-.16-.06-.33-.09-.49l-.09-.45c-.08-.42-.18-.84-.27-1.26a47.52 47.52 0 00-2.2-6.88c-.22-.53-.44-1.05-.67-1.56-.33-.74-.69-1.47-1-2.19s-.6-1.13-.91-1.69-.75-1.29-1.15-1.92c-.15-.25-.31-.49-.47-.74-.11-.19-.23-.36-.36-.55l-.18-.25c-.24-.36-.49-.71-.74-1.05l-.26-.36c-.06-.09-.13-.17-.19-.25l-.37-.48c-.49-.65-1-1.3-1.55-1.92l-.08-.09c-.45-.53-.92-1-1.39-1.54l-.44-.46-.32-.33c-.86-.87-1.76-1.71-2.69-2.52l-.42-.36-.6-.51c-.37-.31-.76-.61-1.14-.91l-.31-.24-.56-.42a47.87 47.87 0 00-4.8-3.09c.31.2.61.4.91.62h.07l1 .68.57.42.31.25 1.14.9.6.51.42.36c.93.81 1.82 1.65 2.69 2.52a3.55 3.55 0 01.33.34 35 35 0 011.83 2l.07.09.2.24c.6.7 1.18 1.43 1.73 2.16l.19.25.26.36.52.73.4.57.36.55c.24.38.48.75.71 1.13s.6 1 .88 1.49c.38.67.74 1.34 1.09 2s.6 1.23.88 1.87.47 1 .68 1.58c.11.27.22.53.32.81a46.19 46.19 0 012.16 7.33l.09.46c0 .13 0 .26.07.39.16.77.29 1.54.39 2.32.07.44.12.88.16 1.33.1.8.16 1.6.21 2.42 0 .33 0 .66.05 1V278.39c0 1-.08 1.95-.17 2.9 0 .55-.1 1.1-.17 1.64a3.11 3.11 0 010 .32c-.12.92-.25 1.83-.42 2.72-.06.26-.11.53-.16.79A47.19 47.19 0 01125 299v.07c-.29.56-.59 1.1-.89 1.65a46.53 46.53 0 01-2.77 4.27 49.29 49.29 0 01-3.2 4c-.7.76-1.42 1.51-2.16 2.24a48.27 48.27 0 01-4.94 4.2 47.48 47.48 0 01-8.5 5c-.93.43-1.88.82-2.85 1.18-.5.19-1 .38-1.51.55-.78.26-1.57.51-2.36.73a46.78 46.78 0 01-5.21 1.11 47.6 47.6 0 01-22.55-1.77c-1-.33-2-.69-3-1.1-.78-.31-1.56-.65-2.33-1s-1.51-.75-2.25-1.15c-.33-.17-.65-.36-1-.54.51.34 1 .66 1.54 1 .23.15.44.27.66.4l.13.07a.85.85 0 00.22.13c.42.26.85.49 1.28.72a44.68 44.68 0 004.69 2.08c1 .41 2 .77 3 1.1a47.64 47.64 0 0027.73.63l.78-.23q.79-.22 1.59-.51c.5-.16 1-.35 1.51-.54a47.47 47.47 0 0013.1-7.53 47.93 47.93 0 005.33-5c.65-.73 1.28-1.47 1.89-2.23a47.45 47.45 0 003.33-4.74c.27-.44.54-.88.79-1.33s.6-1.08.89-1.64c.47-.9.91-1.81 1.32-2.75a46.83 46.83 0 003.5-12.22c0-.16 0-.33.07-.5s.05-.39.08-.58.07-.56.1-.84l.06-.84c0-.19 0-.38.06-.57 0-.42 0-.83.07-1.25s0-.69 0-1v-1.23c-.02-.26-.02-.43-.03-.61z" id="prefix__elu065y8k8roc" class="prefix__animable" style="transform-origin:96.3556px 282.005px"/></g></g></g><g id="prefix__freepik--planet-1--inject-4" class="prefix__animable" style="transform-origin:111.046px 53.34px"><g id="prefix__el87trwaocas5"><ellipse cx="112.22" cy="53.34" rx="23.91" ry="22.71" style="transform-origin:112.22px 53.34px" class="prefix__animable" id="prefix__elnyab93c1mb" fill="#ffb142" transform="rotate(-29.36)"/></g><g id="prefix__el7ycsjipvaom"><g style="transform-origin:112.245px 52.4681px" class="prefix__animable" id="prefix__ely335p5elg7" opacity=".2"><path d="M96.31 39.71a15.49 15.49 0 006.15 1.14c.51 0 .56-.7.18-.89-1.63-.82-3.16-1.65-4.87-2.32-.46-.19-.94-.41-1.44-.63a24.61 24.61 0 00-1.81 1.87c.58.33 1.23.58 1.79.83z" id="prefix__elkc81mjjlrw" class="prefix__animable" style="transform-origin:98.7047px 38.9315px"/><path d="M96.92 43.93a35.24 35.24 0 0014.45 2.6 40.94 40.94 0 0014.83-3.19 34.76 34.76 0 006-3.15 23.3 23.3 0 00-1.42-1.89 24.94 24.94 0 01-4.92 2.81 39.89 39.89 0 01-12.25 3.16 36.31 36.31 0 01-12.09-.76C99 42.9 95.67 42 93.41 40.24c-.31.42-.62.85-.91 1.29a21 21 0 004.42 2.4z" style="transform-origin:112.35px 42.4239px" id="prefix__elvu2ep2rsvn" class="prefix__animable" fill="#fff"/><path d="M111.83 34.5c2.42.1 7-.66 9-2.93a21.67 21.67 0 00-2.32-.65l-.41.3a11.05 11.05 0 01-5 1.49 15.41 15.41 0 01-7.6-1.09c-.48.16-.95.33-1.42.52 1.92 1.72 5.39 2.28 7.75 2.36z" style="transform-origin:112.455px 32.7143px" id="prefix__elni2dvwhhkf" class="prefix__animable" fill="#fff"/><path d="M97.06 52.37c5.62 1.88 11.62 2.1 17.61 1.69a42.33 42.33 0 0015.9-4 33.34 33.34 0 004.71-2.74 21.62 21.62 0 00-1.82-5 34.3 34.3 0 01-6.46 3.46 44 44 0 01-13.51 2.76 43.66 43.66 0 01-14.3-1.12 34.21 34.21 0 01-6.51-2.58c-.54-.28-1-.58-1.56-.88a23.38 23.38 0 00-1.76 4.63 30.33 30.33 0 007.7 3.78z" id="prefix__elm6nedmscpj" class="prefix__animable" style="transform-origin:112.32px 48.277px"/><path d="M102.06 67.81a78.83 78.83 0 01-10-1.65c.32.5.67 1 1 1.48 7.42 2 15.68 2.3 23.21 1.78a78.76 78.76 0 0014.19-2.3c.31-.38.6-.76.89-1.15a76.44 76.44 0 01-14.76 2.23 88.4 88.4 0 01-14.53-.39z" id="prefix__elk3vonnb5wbs" class="prefix__animable" style="transform-origin:111.705px 67.8073px"/><path d="M112.11 38.12a21.54 21.54 0 0010-1.94 18.08 18.08 0 003.56-2.28c-.6-.38-1.22-.73-1.86-1.06a13.09 13.09 0 01-3 1.91 19.83 19.83 0 01-8.46 1.76A26.54 26.54 0 01100.27 34c-.48.29-1 .59-1.4.91 3.8 2.38 9.32 3.09 13.24 3.21z" style="transform-origin:112.27px 35.4919px" id="prefix__elj44m67zb51" class="prefix__animable" fill="#fff"/><path d="M134.24 60.71a57.36 57.36 0 01-6 2.38 56.3 56.3 0 01-12.47 2.63 55.81 55.81 0 01-13.43-.61c-4.1-.64-8.69-1.33-12.44-3.19.19.51.39 1 .61 1.5 2.91 1.35 6.52 1.84 9.49 2.43a60.85 60.85 0 0014.65 1.23A57.8 57.8 0 00133.21 63c0-.06.07-.12.1-.19a21.16 21.16 0 00.93-2.1z" style="transform-origin:112.07px 63.9162px" id="prefix__elgiddi922w97" class="prefix__animable" fill="#fff"/><path d="M115.08 63.84a59.32 59.32 0 0018-4.16c.62-.26 1.23-.53 1.85-.81a22.6 22.6 0 00.86-8.71 37.44 37.44 0 01-6.18 3.07 53.19 53.19 0 01-15.37 3.34 46.33 46.33 0 01-16.11-1.38 38.27 38.27 0 01-8-3.29c-.44-.24-.87-.51-1.3-.78a22.08 22.08 0 00.42 8.55A37.2 37.2 0 0095.17 62a54.12 54.12 0 0019.91 1.84z" style="transform-origin:112.245px 57.1186px" id="prefix__elmn1h8e4kb08" class="prefix__animable" fill="#fff"/><path d="M120.47 38.68c-1.94.41-3.66 1.28-5.69 1.44s-4.23-.22-6.26.34a.93.93 0 00.11 1.8c2.16.47 4.94.06 7.18-.18 1.82-.19 4.06-.83 5.18-2.38.28-.39.1-1.15-.52-1.02z" id="prefix__elts5eli3kelp" class="prefix__animable" style="transform-origin:114.495px 40.5704px"/><path d="M111.14 72.82a6.44 6.44 0 00-1.3.37c-.44.18-.35.9.16.82a4.77 4.77 0 011.13-.06 4.32 4.32 0 001.13-.14.36.36 0 00.15-.68 1.84 1.84 0 00-1.27-.31z" style="transform-origin:111.082px 73.4111px" id="prefix__eldlua8aminyt" class="prefix__animable" fill="#fff"/><path d="M124.4 69.64c-2.61.42-5.54.2-8 1.11-.56.2-.71 1.1-.1 1.31 2.64.92 5.95.22 8.69-.25l.69-.13a24.8 24.8 0 003.48-3c-1.61.37-3.16.7-4.76.96z" id="prefix__elcro69rbhhg9" class="prefix__animable" style="transform-origin:122.533px 70.595px"/><path d="M106.08 72.6c.77-.21.51-1.16-.08-1.33-2.06-.57-4.42-.3-6.57-.6a85.01 85.01 0 01-4.24-.67 22 22 0 002.61 2.16 16 16 0 008.28.44z" style="transform-origin:100.874px 71.4741px" id="prefix__el24l98elphyp" class="prefix__animable" fill="#fff"/></g></g><path d="M112.2 74.9a3.27 3.27 0 01-.75.1 15.48 15.48 0 01-2 0 20.55 20.55 0 01-6.59-1.35 21.19 21.19 0 01-3.34-1.63A19.74 19.74 0 0197 70.28c-.34-.27-.61-.55-.86-.79a8.52 8.52 0 01-.61-.63 3.24 3.24 0 01-.47-.58s.76.74 2.1 1.81a22 22 0 002.46 1.7 24.73 24.73 0 003.3 1.58 23.18 23.18 0 006.49 1.43c1.72.12 2.78.03 2.79.1z" style="transform-origin:103.63px 71.6562px" id="prefix__elzunmq0rxgcn" class="prefix__animable" fill="#fff"/><path d="M133.6 45.24c.06.1-.42.51-1.36 1.17l-.79.55c-.3.19-.63.36-1 .57a26.74 26.74 0 01-2.45 1.26l-1.48.66c-.52.22-1.08.39-1.65.6-1.14.44-2.4.75-3.72 1.11a44.18 44.18 0 01-8.82 1.11 43.75 43.75 0 01-8.85-.84 37.7 37.7 0 01-3.75-1c-.58-.19-1.14-.35-1.67-.56l-1.5-.61A23.86 23.86 0 0194 48.08c-.36-.19-.7-.36-1-.53s-.56-.37-.81-.52c-1-.64-1.45-1-1.39-1.14s.67.1 1.71.54l.85.38 1 .4c.75.27 1.58.64 2.54.92l1.49.49c.52.17 1.08.29 1.65.44 1.12.33 2.36.55 3.65.81a51.44 51.44 0 008.52.68 51 51 0 008.5-.94c1.28-.3 2.51-.55 3.63-.92.56-.17 1.11-.31 1.63-.49l1.47-.53c1-.31 1.77-.71 2.51-1 .37-.15.72-.29 1-.43l.85-.4c1.13-.48 1.73-.7 1.8-.6z" style="transform-origin:112.2px 48.7437px" id="prefix__el6fbbw3d2ag" class="prefix__animable" fill="#ffb142"/><path d="M130.58 66.86s0-.06.08-.16.16-.26.28-.44c.26-.4.62-1 1.09-1.68s-.05.06 0 .08v-.06l.16-.29a23.21 23.21 0 002.53-7.21l.07-.09s-.1.11-.06.15v-.07a22.43 22.43 0 00-6.84-20.12h.18L128 37l-.08-.08a20.62 20.62 0 00-2.5-2.06 21.92 21.92 0 00-13.26-3.76 24.93 24.93 0 00-11 3A23.52 23.52 0 0095 38.85a19.69 19.69 0 00-1.36 1.62l-.34.43c-.08.1-.12.14-.13.14a17.8 17.8 0 011.73-2.28 22.87 22.87 0 016.1-4.85 24.73 24.73 0 0111.08-3.1 23 23 0 016.81.73 20.83 20.83 0 016.67 3.06 21.27 21.27 0 012.54 2.09h-.19.11l.08.08A22.52 22.52 0 01135 57.1V57s0 .16-.06.16l.07-.09a22.75 22.75 0 01-2.65 7.24l-.17.29v-.06.09L131 66.3l-.3.42z" style="transform-origin:114.247px 48.8245px" id="prefix__elcm2p8qtknwg" class="prefix__animable" fill="#fff"/><path d="M88.58 53.57v-.82c-11.39 1.47-16.93 3.19-18.15 4.52-.1.11-.16.21-.15.27v.06c0 .09.11.2.16.25.92.85 6.53 3.47 40.29 1.48 20.32-1.2 35.36-4.34 40-6.33a.62.62 0 00-.05-1.19c-2.38-.63-7.4-1.26-15-1.49v.61c6.24.23 10.11.82 10.13 1.73 0 1.83-15.46 4.23-34.61 5.37s-34.69.59-34.72-1.24c.08-1 4.74-2.18 12.1-3.22z" style="transform-origin:110.716px 55.1898px" id="prefix__elx1rw92jt59" class="prefix__animable" fill="#ffb142"/><path d="M135.48 47.89c0 .17.05.34.07.51 9.69.27 16.51 1.18 18.07 2.61a1.5 1.5 0 01.41 1.73c-.25.63-1 2.55-14.1 5a236.55 236.55 0 01-29.14 3.44c-4.37.26-9 .48-13.55.61-13.1.37-25.39 0-28.15-2.59a2.15 2.15 0 01-.74-1.56A2.33 2.33 0 0169 56c2.18-2.38 10.62-4.06 19.73-5.21v-.34c-15.35 2.08-25.42 5-25.76 7.74-.73 5.8 21.33 7 47.89 5.36s48.35-7.23 48.28-11.09c.02-2.52-9.5-4.2-23.66-4.57z" style="transform-origin:111.046px 56.0564px" id="prefix__el6zq522nqetw" class="prefix__animable" fill="#ffb142"/><path d="M139.9 52.46c.18 0-1.27.7-1.32.72a15 15 0 01-1.76.41c-1.57.34-3.17.61-4.77.83a51.79 51.79 0 00-6.79.93.21.21 0 000 .41 37.68 37.68 0 0013.92-1.93c.59-.19 1.54-.43 1.55-1.19 0-.51-.31-.74-.8-.72a.28.28 0 00-.08.54z" style="transform-origin:132.913px 53.8628px" id="prefix__elvjw7eyddd4c" class="prefix__animable" fill="#ffb142"/><g id="prefix__elbwico31jp4c"><g style="transform-origin:110.716px 55.1898px" class="prefix__animable" id="prefix__el1lij4wfkurd" opacity=".3"><path d="M88.58 53.57v-.82c-11.39 1.47-16.93 3.19-18.15 4.52-.1.11-.16.21-.15.27v.06c0 .09.11.2.16.25.92.85 6.53 3.47 40.29 1.48 20.32-1.2 35.36-4.34 40-6.33a.62.62 0 00-.05-1.19c-2.38-.63-7.4-1.26-15-1.49v.61c6.24.23 10.11.82 10.13 1.73 0 1.83-15.46 4.23-34.61 5.37s-34.69.59-34.72-1.24c.08-1 4.74-2.18 12.1-3.22z" id="prefix__eldik7sc6w2nb" class="prefix__animable" style="transform-origin:110.716px 55.1898px"/><path d="M139.9 52.46c.18 0-1.27.7-1.32.72a15 15 0 01-1.76.41c-1.57.34-3.17.61-4.77.83a51.79 51.79 0 00-6.79.93.21.21 0 000 .41 37.68 37.68 0 0013.92-1.93c.59-.19 1.54-.43 1.55-1.19 0-.51-.31-.74-.8-.72a.28.28 0 00-.08.54z" id="prefix__elyym5ih8t4q" class="prefix__animable" style="transform-origin:132.913px 53.8628px"/></g></g><g id="prefix__el5p0s82v0nie"><g style="transform-origin:111.046px 56.0564px" class="prefix__animable" id="prefix__elvs5euwev7jh" opacity=".3"><path d="M135.48 47.89c0 .17.05.34.07.51 9.69.27 16.51 1.18 18.07 2.61a1.5 1.5 0 01.41 1.73c-.25.63-1 2.55-14.1 5a236.55 236.55 0 01-29.14 3.44c-4.37.26-9 .48-13.55.61-13.1.37-25.39 0-28.15-2.59a2.15 2.15 0 01-.74-1.56A2.33 2.33 0 0169 56c2.18-2.38 10.62-4.06 19.73-5.21v-.34c-15.35 2.08-25.42 5-25.76 7.74-.73 5.8 21.33 7 47.89 5.36s48.35-7.23 48.28-11.09c.02-2.52-9.5-4.2-23.66-4.57z" id="prefix__elqglxc9jowt" class="prefix__animable" style="transform-origin:111.046px 56.0564px"/></g></g></g><g id="prefix__freepik--Astronaut--inject-4" class="prefix__animable" style="transform-origin:232.978px 261.557px;animation:1.5s Infinite linear floating;animation-delay:0s"><path d="M311.33 109.11a5.29 5.29 0 012.8.41c.08 0 .67.31.29.12a7 7 0 01.7.4 7.85 7.85 0 01.66.47c.51.38-.18-.25.25.22a6.08 6.08 0 011.4 2.11 5.54 5.54 0 01.31 2.46c0 .23 0 .45-.07.68.06-.45-.11.4-.13.49s-.14.43-.22.64-.29.63-.1.27a6.66 6.66 0 01-.86 1.3c.28-.32-.14.14-.21.2l-.66.57c-.22.19.19-.07-.24.17l-.57.33a8.33 8.33 0 01-.81.36c.39-.14-.26.08-.28.08-.25.07-.5.12-.75.17-.09 0-.81.08-.39.06a8.78 8.78 0 01-1.54-.07 2.3 2.3 0 00-2.38 2.2 2.33 2.33 0 002.19 2.38 10.33 10.33 0 007.84-18.24 10.3 10.3 0 00-7-2.36 2.37 2.37 0 00-2.39 2.2 2.31 2.31 0 002.2 2.38z" style="transform-origin:315.437px 114.866px" id="prefix__elcso9can5jgm" class="prefix__animable" fill="#263238"/><g id="prefix__el7gw47np95ki"><rect x="184.53" y="79.35" width="126.28" height="166.67" rx="19.38" style="transform-origin:247.67px 162.685px" class="prefix__animable" id="prefix__elvo00kslgfbb" fill="#9b59b6" transform="rotate(-.7)"/></g><path d="M195.17 147.26a4.9 4.9 0 010-.51v-1.51c0-1.35 0-3.3-.05-5.8 0-5.06 0-12.35-.08-21.34v-14.73a7.69 7.69 0 01.92-4 7.45 7.45 0 013-3 7.19 7.19 0 012.08-.7 11.59 11.59 0 012.19-.12H289.56a11.65 11.65 0 012.2.12 7.13 7.13 0 012.07.7 7.38 7.38 0 013 3 7.63 7.63 0 01.92 4v14.73c0 9-.07 16.28-.09 21.34 0 2.5 0 4.45-.05 5.8v2.02a4.9 4.9 0 010-.51v-1.51c0-1.35 0-3.3-.05-5.8 0-5.06-.05-12.34-.08-21.34v-14.73a7.27 7.27 0 00-.88-3.78 7 7 0 00-2.87-2.76 6.63 6.63 0 00-1.94-.65 9.88 9.88 0 00-2.12-.11h-86.33a10.48 10.48 0 00-2.11.1 6.91 6.91 0 00-2 .66 7 7 0 00-2.86 2.76 7.27 7.27 0 00-.88 3.78v14.73c0 9-.07 16.28-.09 21.34v7.31c-.21.34-.23.51-.23.51z" style="transform-origin:246.395px 121.4px" id="prefix__elh6hwhpr0eof" class="prefix__animable" fill="#263238"/><g id="prefix__elylv79hdsrd"><path d="M306.22 240.81c.29-.32-5-60.89-5-60.89l-12.92-3.36 4.18 57.76 7.08 10.33a15 15 0 006.66-3.84z" style="transform-origin:297.266px 210.605px" class="prefix__animable" id="prefix__el7qdh5e1xr12" opacity=".3"/></g><circle cx="286.82" cy="106.84" r="2.33" style="transform-origin:286.82px 106.84px" id="prefix__elfqpuys8jtqm" class="prefix__animable" fill="#263238"/><circle cx="286.82" cy="114.87" r="2.33" style="transform-origin:286.82px 114.87px" id="prefix__el3lfpatzodql" class="prefix__animable" fill="#263238"/><path d="M209.69 121.55s-13 3.71-16 5.48-30.68 29.07-31.66 29.86c-.7.55-10.82-10.62-16.68-18.07l-7.56-4.23L120.43 148l.38 8.92c6.43 10.21 19.37 29.9 25.4 34.75 8 6.48 18.82 6.87 27.35 3.31 5.05-2.1 26.17-18.72 26.17-18.72l11.18-4.12z" style="transform-origin:165.67px 159.385px" id="prefix__el9vyyyynwm4" class="prefix__animable" fill="#e0e0e0"/><path d="M185 158.1a23.47 23.47 0 011.24 3l2.76 7.35 2.83 7.31a25 25 0 011.13 3 17 17 0 01-1.47-2.9c-.83-1.84-1.89-4.41-3-7.28s-2-5.49-2.63-7.4a18.58 18.58 0 01-.86-3.08z" style="transform-origin:188.98px 168.43px" id="prefix__elwo882innnzr" class="prefix__animable" fill="#263238"/><path d="M189.35 184.26a7.73 7.73 0 01-1.13-1.09c-.71-.72-1.68-1.81-2.83-3.21a69 69 0 01-13-24.89c-.49-1.74-.83-3.17-1-4.16a8.18 8.18 0 01-.24-1.55 9.64 9.64 0 01.44 1.51c.25 1 .64 2.38 1.17 4.09a78.66 78.66 0 005.32 13 77.79 77.79 0 007.6 11.79c1.1 1.42 2 2.55 2.69 3.31a10.71 10.71 0 01.98 1.2z" style="transform-origin:180.25px 166.81px" id="prefix__el5mhjaegwldn" class="prefix__animable" fill="#263238"/><path d="M161 165.34a17.84 17.84 0 01.11-4.31 18.32 18.32 0 01.64-4.28 18.28 18.28 0 01-.12 4.32 18 18 0 01-.63 4.27z" style="transform-origin:161.372px 161.045px" id="prefix__elrbe023cwqu" class="prefix__animable" fill="#263238"/><path d="M163.48 155.56c-.66.57 2.36 20.83 17.48 34.78l3.56-2.55s-17.08-16-18-35.21z" style="transform-origin:173.958px 171.46px" id="prefix__elvrxobqra6te" class="prefix__animable" fill="#9b59b6"/><path d="M145.39 138.82c.09.12-5.34 4.26-12.13 9.25s-12.37 9-12.45 8.84 5.35-4.26 12.14-9.26 12.36-8.94 12.44-8.83z" style="transform-origin:133.1px 147.866px" id="prefix__elonwk6nubdz" class="prefix__animable" fill="#263238"/><path d="M126.67 165.74a4.5 4.5 0 01.68-.8l2-2.08c1.73-1.75 4.14-4.16 6.89-6.86v.35l-1.08-1.35-1.51-1.86h.35c-3 2.1-5.68 3.94-7.61 5.24l-2.28 1.5a4.36 4.36 0 01-.86.5 3.65 3.65 0 01.76-.65l2.19-1.63c1.87-1.37 4.5-3.26 7.5-5.38l.2-.14.15.18 1.51 1.86 1.07 1.31.15.18-.17.17c-2.75 2.69-5.22 5-7 6.74l-2.12 2a4.12 4.12 0 01-.82.72z" style="transform-origin:130.015px 159.16px" id="prefix__eljoe78g1arq" class="prefix__animable" fill="#263238"/><path style="transform-origin:131.99px 144.775px" id="prefix__elfas2ch8ccmj" class="prefix__animable" fill="#9b59b6" d="M120.72 154.96l22.83-17.17-5.72-3.2-17.4 13.41.29 6.96z"/><path d="M136.41 114.13c-.46-.57-.93-1.13-1.42-1.67a10.66 10.66 0 00-1.62 2.17 32.71 32.71 0 00-3.37 7.19s-6.08-9.54-7.23-11.72a60.38 60.38 0 00-3.92-6.55 19.42 19.42 0 00-8.54 1c2.6 4.22 7.55 11.56 6.53 12.57-.84.83-5.69-6.3-10-10.84l-.53.35a18.16 18.16 0 00-4.23 4.34c3 3.39 6.52 7.32 6.41 8.13s-4-2.69-8-5.56a27.39 27.39 0 00-1.76 4.18c-.29.88-.53 1.78-.75 2.69 3.89 3.22 9.63 6.13 6.85 6-1.7-.07-4.77-1.57-7.52-2.7-.32 1.89-.55 3.8-.75 5.71 3.38 2.08 7.21 3.2 8.51 5.06 1.43 2 4.89 8.6 9.29 11s6.07 2.55 6.07 2.55l17.14-11.84s1.27-7.5 1.61-11.5a27.65 27.65 0 011.72-6.69c-1.9-.52-3.24-2.3-4.49-3.87z" style="transform-origin:118.73px 125.735px" id="prefix__elcsrkgm0djqi" class="prefix__animable" fill="#263238"/><path d="M100.49 113.49c-3.54-2.59-7.08-4.77-7.83-3.21-1.58 3.28 0 4 3.15 7.94a15.2 15.2 0 002.19 2.14c.22-.91.46-1.81.75-2.69a27.39 27.39 0 011.74-4.18z" style="transform-origin:96.265px 115.058px" id="prefix__elwunswigw6tn" class="prefix__animable" fill="#455a64"/><path d="M118.85 103.55c-2.8-4-6.58-7.8-9.82-5.58 0 0-1.69 1.42.46 5.17.23.39.51.86.82 1.36a19.42 19.42 0 018.54-.95z" style="transform-origin:113.624px 100.907px" id="prefix__elgq0lxsl0k5b" class="prefix__animable" fill="#455a64"/><path d="M91.77 123.14c-.84 2.71.28 3.17 3.86 5.65q.45.32.93.6c.2-1.91.43-3.82.75-5.71-2.72-1.12-5.12-1.89-5.54-.54z" style="transform-origin:94.4074px 125.906px" id="prefix__elh829xy3bw14" class="prefix__animable" fill="#455a64"/><path d="M140.9 118c.75-2.2 1.29-4.06.49-5.58-1.22-2.32-4-2.4-6.4.06.49.54 1 1.1 1.42 1.67 1.25 1.55 2.59 3.33 4.49 3.85z" style="transform-origin:138.388px 114.329px" id="prefix__el3fvxazjlunw" class="prefix__animable" fill="#455a64"/><path d="M106.28 106.58l.53-.35a14.29 14.29 0 00-4.3-3.42c-4.6-1.76-5.77 1.3-4.55 3.28a60.94 60.94 0 004.09 4.83 18.16 18.16 0 014.23-4.34z" style="transform-origin:102.159px 106.602px" id="prefix__eliuyt1k6f19" class="prefix__animable" fill="#455a64"/><path d="M123.66 137.49s-.19-.2-.4-.66a7.57 7.57 0 01-.6-2 8.66 8.66 0 01.12-3.13 8.22 8.22 0 011.71-3.45 8.51 8.51 0 014.93-2.91l-.17.19a26.72 26.72 0 01.54-4 23.92 23.92 0 01-.12 4v.16h-.16a8.56 8.56 0 00-4.61 2.84 8.33 8.33 0 00-1.86 6.2 17.77 17.77 0 00.62 2.76z" style="transform-origin:126.198px 129.51px" id="prefix__elxm56l973zur" class="prefix__animable" fill="#455a64"/><path d="M120.15 118.3c0 .09-1.05.34-2.66 1a20.24 20.24 0 00-5.69 3.7 19.87 19.87 0 00-4.09 5.42c-.8 1.56-1.11 2.62-1.2 2.59s0-.28.14-.76a12.15 12.15 0 01.73-2 17.83 17.83 0 0110-9.3 12.88 12.88 0 012-.59 2.48 2.48 0 01.77-.06z" style="transform-origin:113.312px 124.651px" id="prefix__elf0hourl2d8" class="prefix__animable" fill="#455a64"/><path d="M279.15 90.06c-.15 0-.26-4.81-.26-10.75s.11-10.76.26-10.76.26 4.82.26 10.76-.12 10.75-.26 10.75z" style="transform-origin:279.15px 79.305px" id="prefix__elfchukwpit7s" class="prefix__animable" fill="#263238"/><path d="M204.89 80.21s-2.64-44.63 37.75-44.63c42.05 0 40 46.55 40 50.16 0 0 3.05 34-37.5 34.72-42.56.79-40.25-40.25-40.25-40.25z" style="transform-origin:243.773px 78.0256px" id="prefix__elclnhsgsbqfo" class="prefix__animable" fill="#e0e0e0"/><path d="M207.76 78.81S204.19 45.55 243 45.54c40.34 0 36.77 34.76 36.77 37.57 0 0 1.55 25.79-36 26.54s-36.01-30.84-36.01-30.84z" style="transform-origin:243.762px 77.6016px" id="prefix__elo9iydl5fnrg" class="prefix__animable" fill="#263238"/><path style="transform-origin:246.21px 120.11px" id="prefix__elnsmyudx7tvs" class="prefix__animable" fill="#e0e0e0" d="M279.78 118.31l-5.47-9.05-59.03.4-3.62 10.81-6.52 3.96 40.75 6.53 41.39-6.4-7.5-6.25z"/><rect x="281.09" y="58.23" width="12.49" height="34.05" rx="6.03" style="transform-origin:287.335px 75.255px" id="prefix__elqj2hzvs4oq" class="prefix__animable" fill="#e0e0e0"/><path d="M279.72 76.58a1 1 0 01-.05-.3c0-.23 0-.53-.07-.9-.09-.79-.09-2-.31-3.44-.09-.75-.2-1.57-.31-2.48s-.36-1.87-.56-2.91-.54-2.13-.84-3.3l-.58-1.76c-.1-.3-.21-.61-.31-.92s-.25-.6-.38-.91a32.12 32.12 0 00-11.37-14.57 39.34 39.34 0 00-21.59-6.79h-1.32a24.9 24.9 0 00-5.84.58 38.19 38.19 0 00-5.53 1.54 36.37 36.37 0 00-9.53 5.06 32.05 32.05 0 00-6.83 7 33 33 0 00-4 7.53 43.23 43.23 0 00-2.43 12.07c-.13 1.45-.1 2.59-.12 3.36v.87a1.71 1.71 0 010 .3 1.16 1.16 0 010-.3v-.87c0-.77-.07-1.91 0-3.37a41.72 41.72 0 012.29-12.19 32.65 32.65 0 014-7.64 32 32 0 016.89-7.1 36.91 36.91 0 019.51-5.14 39.18 39.18 0 015.6-1.57 25.66 25.66 0 016-.59h1.36a39.69 39.69 0 0121.86 6.92 31.17 31.17 0 017.21 7.09 32.89 32.89 0 014.22 7.73l.38.93.3.92c.2.61.39 1.21.57 1.79.3 1.17.59 2.28.82 3.33s.35 2 .51 2.94.19 1.74.27 2.49c.19 1.49.16 2.67.21 3.45v.9a1.43 1.43 0 01-.03.25z" style="transform-origin:243.734px 57.2225px" id="prefix__eladg25czhzb" class="prefix__animable" fill="#263238"/><path d="M214.64 61.06c-4.39 7.41-5.09 16.62-3.25 25 9 1 18.18-3.45 24-10.44s8.39-18 8.32-27.11c-15.51-.02-24.71 5.14-29.07 12.55z" style="transform-origin:227.075px 67.3549px" id="prefix__elivsgyjldk2" class="prefix__animable" fill="#455a64"/><path d="M251.22 49.27C258.75 60 255.91 80 255.91 80h7c3-17.07-2.75-29.09-2.75-29.09z" style="transform-origin:257.498px 64.635px" id="prefix__el9kjcq9bosoh" class="prefix__animable" fill="#455a64"/><path d="M265.59 75.26c.55 0 .59 7.21-1.13 11.78H269c.63 0 2.32-7 1.59-11.78z" style="transform-origin:267.615px 81.15px" id="prefix__el4dwd6ff3g2m" class="prefix__animable" fill="#455a64"/><path d="M293.19 68a34.43 34.43 0 01-6 .26 34.5 34.5 0 01-6-.26 35.71 35.71 0 016-.26 35.64 35.64 0 016 .26z" style="transform-origin:287.19px 68.0017px" id="prefix__elgqbk2cwvbl4" class="prefix__animable" fill="#263238"/><path d="M289.71 75.26a2.38 2.38 0 11-2.38-2.38 2.38 2.38 0 012.38 2.38z" style="transform-origin:287.33px 75.26px" id="prefix__el3tv3eq94iuz" class="prefix__animable" fill="#263238"/><path d="M289.71 83.7a2.38 2.38 0 11-2.38-2.38 2.37 2.37 0 012.38 2.38z" style="transform-origin:287.33px 83.7px" id="prefix__elnj8w7bl5nx" class="prefix__animable" fill="#263238"/><rect x="193.97" y="58.23" width="12.49" height="34.05" rx="6.03" style="transform-origin:200.215px 75.255px" id="prefix__el4zigbmj4b2r" class="prefix__animable" fill="#e0e0e0"/><path d="M206.07 68a34.59 34.59 0 01-6 .26 34.43 34.43 0 01-6-.26 35.64 35.64 0 016-.26 35.81 35.81 0 016 .26z" style="transform-origin:200.07px 68.0017px" id="prefix__elqorkf9ah4c" class="prefix__animable" fill="#263238"/><path d="M202.58 75.26a2.38 2.38 0 11-2.37-2.38 2.38 2.38 0 012.37 2.38z" style="transform-origin:200.2px 75.26px" id="prefix__el8r0mzukf7u" class="prefix__animable" fill="#263238"/><path d="M202.58 83.7a2.38 2.38 0 11-2.37-2.38 2.37 2.37 0 012.37 2.38z" style="transform-origin:200.2px 83.7px" id="prefix__elwjbi89s21n" class="prefix__animable" fill="#263238"/><path d="M274.55 109.66a2.76 2.76 0 01-.52.37c-.36.23-.88.57-1.57 1-1.37.82-3.39 1.94-6 3.16a57.15 57.15 0 01-9.42 3.48 45.3 45.3 0 01-12.19 1.59 56.44 56.44 0 01-21.72-4.73 51.33 51.33 0 01-6-3.11c-.7-.4-1.2-.76-1.55-1a2.49 2.49 0 01-.52-.38 3.71 3.71 0 01.57.29c.37.2.89.53 1.6.91a62.64 62.64 0 006.05 2.94 58 58 0 0021.58 4.54 45.39 45.39 0 0012.14-1.55 59.2 59.2 0 009.38-3.35c2.6-1.16 4.64-2.23 6-3l1.61-.88a3.26 3.26 0 01.56-.28z" style="transform-origin:244.805px 114.46px" id="prefix__elgdzbq7ti29" class="prefix__animable" fill="#263238"/><path d="M279.83 118.39a4.09 4.09 0 01-.55.52c-.37.32-.92.79-1.65 1.38a62.93 62.93 0 01-6.43 4.64 36.53 36.53 0 01-10.86 4.51A59.27 59.27 0 01246 131a60.23 60.23 0 01-7.46-.47 46.7 46.7 0 01-6.82-1.42 57.78 57.78 0 01-10.93-4.35 65.68 65.68 0 01-6.8-4.06c-.79-.52-1.36-1-1.76-1.25a3.28 3.28 0 01-.59-.47 5 5 0 01.65.39c.41.26 1 .67 1.81 1.16a77.29 77.29 0 006.86 3.91 60.22 60.22 0 0010.89 4.21 50.16 50.16 0 006.76 1.38 61 61 0 007.39.45 59.94 59.94 0 0014.21-1.5 36.64 36.64 0 0010.79-4.37 71.72 71.72 0 006.51-4.48l1.71-1.3a4.94 4.94 0 01.61-.44z" style="transform-origin:245.735px 124.698px" id="prefix__elzmky9to5fna" class="prefix__animable" fill="#263238"/><g id="prefix__elzhk6jdsz6p"><g style="transform-origin:244.385px 117.579px" class="prefix__animable" id="prefix__elwka0sgcchga" opacity=".3"><path d="M216 111.06a36.51 36.51 0 0056.77-.34 54.27 54.27 0 01-56 .67" id="prefix__el5g2tueovznc" class="prefix__animable" style="transform-origin:244.385px 117.579px"/></g></g><path d="M363.12 259.82a39.34 39.34 0 01-5.74-2.17c-1.36-.57-2.72-1.11-4.1-1.62-1 2.59-2.24 5.76.33 7.09 3.49 1.81 5.77 2.53 10.63-.2a19.59 19.59 0 004-3 11 11 0 01-5.12-.1z" style="transform-origin:360.163px 260.379px" id="prefix__elqpq326mxwsi" class="prefix__animable" fill="#455a64"/><path d="M349.37 254.69q-4.08-1.29-8.25-2.19c.15 1.45.26 2.51.32 2.9.33 2.14 1.45 5.35 4.24 5.48s3.86-2.09 3.69-6.19z" style="transform-origin:345.254px 256.693px" id="prefix__elanaku1uhli" class="prefix__animable" fill="#455a64"/><path style="transform-origin:246.205px 180.75px" id="prefix__elm4jo0ndboj" class="prefix__animable" fill="#e0e0e0" d="M201.42 235.51l-8.62-59.47 10.37-51.06h7.28l67.36-6.12 21.8 8.61-1.17 52.29 1.08 45.62-48.01 17.26-50.09-7.13z"/><path d="M199.44 221.88s0-.07-.06-.23-.08-.41-.13-.68c-.11-.65-.26-1.53-.44-2.64-.38-2.34-.9-5.64-1.55-9.71-1.26-8.24-3-19.56-4.91-32.06-1-6.25-2-12.21-2.63-17.68a107.21 107.21 0 01-.72-14.58 67.06 67.06 0 01.86-9.8c.16-1.15.39-2 .51-2.63l.15-.68a1 1 0 01.07-.23.87.87 0 010 .24c0 .19-.06.41-.1.69-.08.6-.28 1.48-.41 2.64a73.24 73.24 0 00-.69 9.78 113.43 113.43 0 00.88 14.52c.62 5.45 1.62 11.39 2.66 17.65 1.92 12.52 3.57 23.87 4.77 32.09.57 4.07 1 7.39 1.38 9.73.14 1.12.26 2 .35 2.65 0 .28 0 .51.07.7a.58.58 0 01-.06.23z" style="transform-origin:194.241px 176.42px" id="prefix__el2mgltvsyvc5" class="prefix__animable" fill="#263238"/><g id="prefix__elmygkw907rdm"><g style="transform-origin:271.43px 221.295px" class="prefix__animable" id="prefix__elg6i6zp1bmfr" opacity=".3"><path d="M286.19 218.3a15.63 15.63 0 01-17.52 8.7c-4.52-1-8.34-3.93-12-6.78l3.62-3.64 14.45 2.33 8.22-3.68z" id="prefix__el7tb7i7kmj88" class="prefix__animable" style="transform-origin:271.43px 221.295px"/></g></g><path d="M300 230.32a.81.81 0 01-.24.06l-.72.13-2.76.46c-2.39.39-5.87.91-10.17 1.49-8.61 1.17-20.53 2.52-33.75 3.49s-25.21 1.34-33.9 1.43c-4.34.05-7.85 0-10.28 0h-3.52a.79.79 0 01-.25 0 .72.72 0 01.25 0h3.52c2.43 0 5.94-.07 10.28-.17 8.67-.18 20.66-.62 33.86-1.58s25.13-2.26 33.74-3.34c4.31-.53 7.79-1 10.19-1.32l2.77-.36.73-.08a.7.7 0 01.25-.21z" style="transform-origin:252.205px 233.861px" id="prefix__elcfyt5z0x1od" class="prefix__animable" fill="#263238"/><path d="M298.68 189.07c-33.17-.84-73.1.12-103.31 1.27l1.37 8.21 102.07-2.74z" style="transform-origin:247.09px 193.651px" id="prefix__eltqri42v8yt" class="prefix__animable" fill="#9b59b6"/><path d="M274.79 185.4a5.2 5.2 0 001.93-.52 4.26 4.26 0 002.21-3.12 14.45 14.45 0 000-1.77c0-5.07-.05-12.38-.08-21.4v-7.09a4.07 4.07 0 00-3.18-3.92 8.58 8.58 0 00-1.92-.1h-55.88a4 4 0 00-3.75 2.57 6 6 0 00-.28 2.41v29.02a4.05 4.05 0 004.31 3.73h27.32l21.41.08h7.85H272.7l-5.82.05-21.41.08H218.21a4.57 4.57 0 01-4-1.95 4.5 4.5 0 01-.78-2.22V174.31v-9.57-12.24a6.51 6.51 0 01.32-2.6 4.55 4.55 0 014.23-2.9h55.88a8.7 8.7 0 012 .12 4.49 4.49 0 013.48 4.32v7.1c0 9-.06 16.33-.08 21.4a13.16 13.16 0 01-.07 1.8 4.31 4.31 0 01-.54 1.5 4.26 4.26 0 01-1.79 1.68 4.09 4.09 0 01-1.46.42 2.89 2.89 0 01-.61.06z" style="transform-origin:246.375px 166.207px" id="prefix__elm24ytyfix1m" class="prefix__animable" fill="#263238"/><path d="M214.43 147.22c.45-7-7.44-11.37-12.09-15.07-2.7-2.15-5-4.21-6.31-7.32-.84-2-1.6-4.6-.7-6.75a6.11 6.11 0 014-3.33 11.25 11.25 0 015.76.08 20.83 20.83 0 016.18 2.2c2.79 1.62 5.31-2.7 2.53-4.32a25 25 0 00-6.29-2.45 21.11 21.11 0 00-6.7-.83c-5.42.42-10.16 4.13-10.76 9.71-.5 4.7 1.84 9.76 5 13.14 2.61 2.79 5.92 5 8.84 7.29a26.26 26.26 0 014.32 4c-.27-.34.22.31.21.3l.4.62c.1.18.5 1.05.35.67a5.89 5.89 0 01.31 1.09c-.1-.5 0 0 0 .12a7.3 7.3 0 010 .81c-.2 3.21 4.8 3.2 5 0z" style="transform-origin:202.495px 129.5px" id="prefix__elux0m363lok" class="prefix__animable" fill="#263238"/><path style="transform-origin:211.935px 149.965px" id="prefix__el8o4zm5i8p5d" class="prefix__animable" fill="#455a64" d="M205.7 144.27h12.47l-.13 11.39h-11.78l-.56-11.39z"/><g id="prefix__eltcs5kk96sdh"><circle cx="232.53" cy="212.87" r="7.44" style="transform-origin:232.53px 212.87px" class="prefix__animable" id="prefix__elx2qcmjwcjzf" fill="#263238" transform="rotate(-22.39)"/></g><g id="prefix__elxtxbp6q1hzp"><circle cx="257.35" cy="212.87" r="7.44" style="transform-origin:257.35px 212.87px" class="prefix__animable" id="prefix__el4c6k01n9rgf" fill="#263238" transform="rotate(-22.39)"/></g><g id="prefix__elpcrw57mfyre"><circle cx="283.68" cy="212.87" r="7.44" style="transform-origin:283.68px 212.87px" class="prefix__animable" id="prefix__elcrbmcbfptf6" fill="#263238" transform="rotate(-24.98)"/></g><path d="M253.46 215.57c8.2 11.22 24.67 12.9 33.66 1.45 3.9-5-3.08-12-7-7-4.62 5.89-13.28 7.11-18.07.56-3.73-5.11-12.34-.16-8.57 5z" style="transform-origin:270.406px 216.568px" id="prefix__elg6hka6cd7o8" class="prefix__animable" fill="#e0e0e0"/><path d="M253.46 215.57a.71.71 0 01-.14-.19l-.38-.59a6 6 0 01-.41-1.06 4 4 0 010-1.55 4.73 4.73 0 012.61-3.23 5.86 5.86 0 012.57-.69 5.44 5.44 0 012.9.74 10.13 10.13 0 012.3 2.32 14.93 14.93 0 001.21 1.17 11.16 11.16 0 001.45 1 10 10 0 007.31.95 12.7 12.7 0 006.91-4.45c.24-.27.53-.56.79-.84a8.41 8.41 0 011-.68 4 4 0 012.37-.35 5.8 5.8 0 014.26 7.49 12.55 12.55 0 01-2.74 3.68 20.29 20.29 0 01-7.27 4.57 19.56 19.56 0 01-7.7 1.14 21.1 21.1 0 01-6.63-1.35 21.58 21.58 0 01-8.14-5.33 16.33 16.33 0 01-1.73-2l-.41-.55a.89.89 0 01-.13-.19s.06.05.17.16l.46.52a18.74 18.74 0 001.79 1.94 21.87 21.87 0 008.12 5.12 20.75 20.75 0 006.52 1.27 19.22 19.22 0 007.49-1.19 19.92 19.92 0 007.07-4.48c.94-1.1 2.13-2.13 2.61-3.5a5.3 5.3 0 00-3.85-6.8 3.51 3.51 0 00-2 .29 6.65 6.65 0 00-.86.61c-.25.27-.5.5-.74.78a13.14 13.14 0 01-7.2 4.6 10.42 10.42 0 01-7.64-1 13.17 13.17 0 01-1.5-1c-.42-.43-.88-.79-1.24-1.24a10.34 10.34 0 00-2.19-2.27 5.17 5.17 0 00-2.7-.72 5.72 5.72 0 00-2.45.62 4.57 4.57 0 00-2.55 3 3.92 3.92 0 000 1.48 6.11 6.11 0 00.35 1.05l.32.6c-.01.07.03.14.02.15z" style="transform-origin:270.479px 216.549px" id="prefix__eluiku1pejk0l" class="prefix__animable" fill="#263238"/><path d="M225.64 174.2a1.84 1.84 0 11-1.83-1.84 1.84 1.84 0 011.83 1.84z" style="transform-origin:223.8px 174.2px" id="prefix__elkpfu2pln1t" class="prefix__animable" fill="#263238"/><path d="M231.94 174.2a1.84 1.84 0 11-1.84-1.84 1.85 1.85 0 011.84 1.84z" style="transform-origin:230.1px 174.2px" id="prefix__elw1gndqk7m5k" class="prefix__animable" fill="#263238"/><path d="M238 174.2a1.84 1.84 0 11-1.84-1.84 1.85 1.85 0 011.84 1.84z" style="transform-origin:236.16px 174.2px" id="prefix__eltxo9708y7l" class="prefix__animable" fill="#263238"/><path d="M244.1 174.2a1.84 1.84 0 11-1.84-1.84 1.85 1.85 0 011.84 1.84z" style="transform-origin:242.26px 174.2px" id="prefix__elhpxqjq2ins6" class="prefix__animable" fill="#263238"/><path d="M241.39 162.52h-16.72a2.21 2.21 0 01-2.21-2.21 2.21 2.21 0 012.21-2.21h16.72a2.21 2.21 0 012.21 2.21 2.21 2.21 0 01-2.21 2.21z" style="transform-origin:233.03px 160.31px" id="prefix__elaoh4dhrqhej" class="prefix__animable" fill="#fff"/><path d="M226 167.18a1.84 1.84 0 11-1.84-1.84 1.84 1.84 0 011.84 1.84z" style="transform-origin:224.16px 167.18px" id="prefix__elgynv30jq39l" class="prefix__animable" fill="#9b59b6"/><path d="M232.26 167.18a1.84 1.84 0 11-1.84-1.84 1.84 1.84 0 011.84 1.84z" style="transform-origin:230.42px 167.18px" id="prefix__elfgi4qbee9s" class="prefix__animable" fill="#fff"/><path d="M238.34 167.18a1.84 1.84 0 11-1.84-1.84 1.84 1.84 0 011.84 1.84z" style="transform-origin:236.5px 167.18px" id="prefix__eltkxpsxi2xl7" class="prefix__animable" fill="#9b59b6"/><path d="M244.42 167.18a1.84 1.84 0 11-1.84-1.84 1.84 1.84 0 011.84 1.84z" style="transform-origin:242.58px 167.18px" id="prefix__eld3eqndyi2lw" class="prefix__animable" fill="#fff"/><rect x="256.32" y="156.67" width="13.5" height="13.5" rx="1.66" style="transform-origin:263.07px 163.42px" id="prefix__elbnhud0xbyz" class="prefix__animable" fill="#455a64"/><path d="M269.05 176.56h-12a1.88 1.88 0 01-1.88-1.88 1.88 1.88 0 011.88-1.88h12a1.89 1.89 0 011.89 1.88 1.89 1.89 0 01-1.89 1.88z" style="transform-origin:263.055px 174.68px" id="prefix__el7u4dfg3jugt" class="prefix__animable" fill="#263238"/><g id="prefix__el323ktncxvb8"><path d="M217 185.37s.32 1.16 4 1.76 49.15.5 51.84 0a7.71 7.71 0 004.13-2.11z" style="transform-origin:246.985px 186.282px" class="prefix__animable" id="prefix__el9kcrcpgciib" opacity=".3"/></g><path d="M359.32 209.48c-2.4-5.64-16.66-29.46-21-36.44s-17-20.46-17-20.46l-12.1-16a41.73 41.73 0 00-9.56-9.15l-8.49 27.8 3.11 23.61 14.65 7.84 9 14.27 17.79 27.64a17.48 17.48 0 003.36 1.78L360.72 217s.9-2.13-1.4-7.52z" style="transform-origin:326.032px 178.9px" id="prefix__elwjp49aiixwd" class="prefix__animable" fill="#e0e0e0"/><path d="M326.05 167a4.18 4.18 0 01-.24 1 9.07 9.07 0 01-.4 1.17 15.88 15.88 0 01-.65 1.5 26.74 26.74 0 01-2.15 3.68 39.21 39.21 0 01-3.28 4.06 47.53 47.53 0 01-7.12 6.2c-1 .71-1.81 1.23-2.4 1.58a3.94 3.94 0 01-.93.48c0-.07 1.2-.89 3.11-2.35a56.7 56.7 0 007-6.27 43.82 43.82 0 003.27-4 31.64 31.64 0 002.21-3.57c1.07-2.04 1.53-3.48 1.58-3.48z" style="transform-origin:317.465px 176.835px" id="prefix__el2cuqt5xxxv7" class="prefix__animable" fill="#263238"/><path d="M305.62 161c.08 0-.4 1.11-1 2.91s-1.31 4.3-2.07 7.1a70.91 70.91 0 01-2.21 7.08c-.35.89-.67 1.6-.91 2.07s-.4.73-.43.71.39-1.11 1-2.9 1.31-4.31 2.06-7.1a72.74 72.74 0 012.22-7.09 20.26 20.26 0 01.91-2.07 3 3 0 01.43-.71z" style="transform-origin:302.314px 170.936px" id="prefix__elmpvgkrn6fv8" class="prefix__animable" fill="#263238"/><path d="M300.61 132.42a.73.73 0 010 .24c0 .19 0 .42-.06.7-.06.66-.14 1.56-.25 2.7s-.17 2.62-.28 4.28-.16 3.57-.25 5.67c-.31 8.4-.48 20-.5 32.86s.08 24.47.17 32.89c0 4.17.08 7.56.1 10v3.42a.68.68 0 010 .24.75.75 0 010-.24v-.71c0-.66-.07-1.56-.11-2.7-.07-2.4-.16-5.8-.27-10-.18-8.41-.33-20-.32-32.89s.25-24.47.65-32.88c.12-2.1.23-4 .33-5.67s.27-3.09.37-4.28.27-2 .35-2.69c0-.28.08-.51.11-.7a.65.65 0 01-.04-.24z" style="transform-origin:299.745px 178.92px" id="prefix__el9yuk4sh2ef6" class="prefix__animable" fill="#263238"/><path d="M348.46 213.8c-.63.21-11.21 4.61-12.76 14.83a18.11 18.11 0 003.84 2L360.72 217a7.74 7.74 0 00-.1-3.62s-1.43-3.02-12.16.42z" style="transform-origin:348.294px 221.392px" id="prefix__el57fx53fb04g" class="prefix__animable" fill="#9b59b6"/><path d="M339.17 231.71s1.94 21.55 2.27 23.69 1.45 5.35 4.24 5.48c3.15.15 4.06-2.59 3.59-7.56s-.5-8.13.44-7.5 4.67 5.22 4.33 7.73-3.93 7.76-.43 9.57 5.77 2.53 10.63-.2a18.17 18.17 0 006.83-6.45s4-8.35 3.3-11.69c-.27-1.26-8.35-17.44-8.35-17.44l-5.64-9.56s-2.49-4.87-12.2.37c-10.26 5.53-9.26 10.96-9.01 13.56z" style="transform-origin:356.738px 240.225px" id="prefix__elym3mz7vl23" class="prefix__animable" fill="#263238"/><path d="M303.24 183.7a234.36 234.36 0 0019.15-29.9l3.16 3.46a129.67 129.67 0 01-19.14 28.14z" style="transform-origin:314.395px 169.6px" id="prefix__elp7yj9jt09en" class="prefix__animable" fill="#9b59b6"/><path d="M355.72 202.54s-.37 0-1 .07a17 17 0 00-2.78.51 59.84 59.84 0 00-8.94 3.35l-.2.09-.12-.17-1.18-1.62-.93-1.28-.13-.18.16-.16a13.21 13.21 0 014.75-2.86 24.2 24.2 0 014.3-1.11 27.21 27.21 0 012.95-.34 4.14 4.14 0 011.08 0 6.15 6.15 0 01-1.06.17c-.69.1-1.68.24-2.9.49a25.72 25.72 0 00-4.21 1.21 13 13 0 00-4.54 2.79v-.34l.93 1.28c.4.56.8 1.1 1.18 1.62l-.32-.08a49.4 49.4 0 019.08-3.21 12.77 12.77 0 012.85-.37 3.83 3.83 0 01.78.06c.16.04.25.06.25.08z" style="transform-origin:348.08px 202.682px" id="prefix__elxbti53yijn" class="prefix__animable" fill="#263238"/><path d="M359.93 211a43.72 43.72 0 00-4.92-.37 20.55 20.55 0 00-5.24.77 23.21 23.21 0 00-5.91 2.68 23.7 23.7 0 00-8 8.54 42.66 42.66 0 00-2 4.5 5.68 5.68 0 01.3-1.3 20.91 20.91 0 011.38-3.38 22.84 22.84 0 0114.12-11.5 19.5 19.5 0 019-.29 5.46 5.46 0 011.27.35z" style="transform-origin:346.895px 218.689px" id="prefix__elnzcgkh5rn3" class="prefix__animable" fill="#263238"/><path d="M361.05 243.57a3 3 0 01.51.75 16.5 16.5 0 011.05 2.22 14.91 14.91 0 01.91 3.54 11 11 0 01-.36 4.49 14.83 14.83 0 01-2.05 4 31.26 31.26 0 01-2.27 2.84 24.34 24.34 0 01-1.72 1.75c-.42.39-.68.59-.7.56s.84-1 2.14-2.55c.65-.79 1.4-1.76 2.15-2.87a14.85 14.85 0 002-3.88 12.88 12.88 0 00-.39-7.75c-.71-1.94-1.32-3.05-1.27-3.1z" style="transform-origin:360.014px 253.646px" id="prefix__el6t0jft1a6a" class="prefix__animable" fill="#455a64"/><path d="M369.88 244.61a2.25 2.25 0 01.33.69 10.76 10.76 0 01.57 2 14.44 14.44 0 01.3 3.07 17.17 17.17 0 01-.45 3.76 18 18 0 01-1.3 3.55 15.65 15.65 0 01-1.66 2.6 10.48 10.48 0 01-1.42 1.52c-.37.32-.58.49-.61.46s.73-.8 1.73-2.2a17 17 0 001.53-2.59 19.58 19.58 0 001.22-3.47 18.79 18.79 0 00.48-3.64 17 17 0 00-.18-3c-.26-1.7-.63-2.71-.54-2.75z" style="transform-origin:368.36px 253.437px" id="prefix__el21bvi5pqupr" class="prefix__animable" fill="#455a64"/><path d="M361.63 239.44c.12-.07.51.54.39 1.38s-.68 1.3-.77 1.2.16-.6.25-1.28-.01-1.24.13-1.3z" style="transform-origin:361.637px 240.734px" id="prefix__el6qfbz3fy8nt" class="prefix__animable" fill="#455a64"/><path d="M369.78 240.6c.11-.09.53.29.65 1s-.14 1.16-.27 1.12-.14-.5-.24-1-.26-1.04-.14-1.12z" style="transform-origin:370.099px 241.655px" id="prefix__elbldcz21cbm6" class="prefix__animable" fill="#455a64"/><path d="M214.05 408.81l15.88 37.32-7.46 28.42a11.44 11.44 0 009.34 12.84 5.81 5.81 0 001.5.14c1.49-.13 5.42-2.72 6.22-3.9 9-13.18 21.54-30.37 19.72-36.38-1-3.43-9.13-44.28-9.13-44.28z" style="transform-origin:236.739px 445.252px" id="prefix__elzlkwmg1rp6p" class="prefix__animable" fill="#e0e0e0"/><path d="M241.49 428.84a2.74 2.74 0 01.32.54c.19.37.45.91.78 1.61a64.63 64.63 0 012.52 6 29.07 29.07 0 011.81 9.49 19 19 0 01-.85 5.68 44.38 44.38 0 01-2.32 5.73c-1.88 3.77-2.94 7.62-4.6 10.94a14.86 14.86 0 01-6.81 7.19 9.47 9.47 0 01-6.9.4 6.38 6.38 0 01-1.67-.87 2.22 2.22 0 01-.48-.43 11.3 11.3 0 002.24 1.06 9.36 9.36 0 006.59-.57 14.58 14.58 0 006.45-7c1.58-3.24 2.65-7.15 4.54-10.95a45.73 45.73 0 002.31-5.65 18.85 18.85 0 00.86-5.5 30 30 0 00-1.64-9.35c-.85-2.6-1.73-4.66-2.3-6.09a16.56 16.56 0 01-.85-2.23z" style="transform-origin:235.105px 452.864px" id="prefix__elbcenkvykt" class="prefix__animable" fill="#263238"/><path d="M242.26 447.1c-.07.18-2.79-.59-6.25-.89s-6.3-.06-6.32-.25 2.82-.73 6.38-.4 6.26 1.44 6.19 1.54z" style="transform-origin:235.976px 446.291px" id="prefix__ell2gap1uoll" class="prefix__animable" fill="#263238"/><path d="M237.94 455.65c-.1.17-2.29-.88-5.2-1.54s-5.37-.71-5.37-.9 2.52-.43 5.53.27 5.1 2.03 5.04 2.17z" style="transform-origin:232.656px 454.34px" id="prefix__elxtqgu917qa" class="prefix__animable" fill="#263238"/><path d="M236.6 465c-.13.15-2.1-1.23-4.85-2.34s-5.18-1.55-5.14-1.74 2.56 0 5.42 1.14 4.69 2.81 4.57 2.94z" style="transform-origin:231.608px 462.934px" id="prefix__elwwp40nd77w" class="prefix__animable" fill="#263238"/><path d="M224 481.67a11.37 11.37 0 002 .85 9.61 9.61 0 005.84-.32 16.63 16.63 0 006.75-5.21c2.07-2.48 4.22-5.33 6.34-8.38a122.34 122.34 0 009.49-16.41c1-2.18 1.83-4 2.38-5.21a12.36 12.36 0 01.89-1.91 14.14 14.14 0 01-.64 2c-.47 1.26-1.18 3.09-2.18 5.3a106.28 106.28 0 01-9.31 16.62c-2.14 3.08-4.3 5.92-6.43 8.41a16.79 16.79 0 01-7.08 5.26 9.57 9.57 0 01-6.1.13 6 6 0 01-1.48-.72c-.3-.26-.47-.39-.47-.41z" style="transform-origin:240.845px 464.158px" id="prefix__elqzwkznpk4gi" class="prefix__animable" fill="#263238"/><path d="M255.66 448.7a17 17 0 01-.67-3.07c-.36-1.9-.9-4.51-1.66-7.36s-1.58-5.4-2.2-7.23a17.69 17.69 0 01-.94-3 13 13 0 011.4 2.85 59.4 59.4 0 013.89 14.68 11.88 11.88 0 01.18 3.13z" style="transform-origin:252.942px 438.37px" id="prefix__elple5058u0af" class="prefix__animable" fill="#263238"/><path d="M331.27 390.18l-8.52 39.54 12.83 26.85a11.18 11.18 0 01-6.77 14.24 5.55 5.55 0 01-1.45.39c-1.5.12-5.88-1.79-6.9-2.82-11.41-11.53-27.12-26.38-26.46-32.67.37-3.56.52-45.29.52-45.29z" style="transform-origin:315.098px 430.693px" id="prefix__eltv3rvu8uapl" class="prefix__animable" fill="#e0e0e0"/><path d="M308 414.56s0 .21-.07.61-.21 1.05-.34 1.74c-.29 1.51-.76 3.69-1.1 6.4a29.54 29.54 0 00.17 9.52 19.3 19.3 0 001.91 5.29 48.1 48.1 0 003.36 5.2c2.6 3.44 4.41 7.12 6.6 10.07a15.12 15.12 0 007.73 5.87 9.38 9.38 0 006.62-.54 9.5 9.5 0 002-1.42s-.1.19-.38.51a6.56 6.56 0 01-1.49 1.13 9.44 9.44 0 01-6.89.76 15.5 15.5 0 01-8.12-6c-2.28-3-4.07-6.63-6.65-10.05a47.82 47.82 0 01-3.39-5.27 19.59 19.59 0 01-1.93-5.47 28.85 28.85 0 010-9.69 62.86 62.86 0 011.32-6.39c.2-.75.35-1.33.47-1.72a2.27 2.27 0 01.18-.55z" style="transform-origin:320.25px 437.296px" id="prefix__elv7fmaz8m24d" class="prefix__animable" fill="#263238"/><path d="M310.75 432.72c-.1-.13 2.36-1.64 5.82-2.54s6.39-.84 6.38-.68-2.84.41-6.19 1.3-5.91 2.1-6.01 1.92z" style="transform-origin:316.849px 431.072px" id="prefix__elumneqkjfme" class="prefix__animable" fill="#263238"/><path d="M316.66 440.46c-.13-.12 1.71-1.79 4.56-3s5.41-1.36 5.42-1.19-2.39.63-5.13 1.78-4.72 2.56-4.85 2.41z" style="transform-origin:321.647px 438.342px" id="prefix__elnem5lnud3c" class="prefix__animable" fill="#263238"/><path d="M319.78 449.46c-.15-.09 1.35-2 4-3.67s5.1-2.19 5.14-2-2.25 1-4.75 2.57-4.24 3.23-4.39 3.1z" style="transform-origin:324.345px 446.61px" id="prefix__el47pkfoxslo3" class="prefix__animable" fill="#263238"/><path d="M335.4 463.87s-.11.16-.36.43a6.11 6.11 0 01-1.33 1 9.57 9.57 0 01-6 .89 17.47 17.47 0 01-8-4 106.43 106.43 0 01-8-7.24 109.41 109.41 0 01-12.43-14.83c-1.42-2-2.47-3.7-3.18-4.87a12.71 12.71 0 01-1-1.87 14.08 14.08 0 011.25 1.74c.78 1.13 1.89 2.77 3.35 4.75a126.07 126.07 0 0012.53 14.64c2.68 2.67 5.35 5.12 7.87 7.23a17.26 17.26 0 007.68 4 9.65 9.65 0 005.83-.66 13.29 13.29 0 001.79-1.21z" style="transform-origin:315.25px 449.858px" id="prefix__eliabsjh8cmkg" class="prefix__animable" fill="#263238"/><path d="M297.81 436.54a11.89 11.89 0 01-.42-3.13 59 59 0 011-15.15 12.69 12.69 0 01.83-3.06 16.71 16.71 0 01-.35 3.13c-.26 1.92-.59 4.57-.79 7.52s-.23 5.61-.22 7.55a17.06 17.06 0 01-.05 3.14z" style="transform-origin:298.246px 425.87px" id="prefix__el016o229pwxfch" class="prefix__animable" fill="#263238"/><path d="M311.38 256.34s7.64-.71 10.41 2.59 13.44 19.95 11.88 21.51-4.63 5.29-4.63 5.29z" style="transform-origin:322.602px 271.003px" id="prefix__elvnps8dxebna" class="prefix__animable" fill="#455a64"/><path d="M252.15 385.59c.08-.63-6.22-24.26-6.22-24.26l-.58-28.74 1.56-18.87s5.12-2.2 1-7.8l2.21-9.81-50.23-61.89s-2.57 16.62-3.84 35.86c-.29 4.5-5.61 27.34-4.1 42.07s8.53 41.64 8.83 46.38 8.66 33.64 12.89 43.42c5 11.6 12.85 35.37 12.85 35.37l31.68-7.48s-6.13-43.62-6.05-44.25z" style="transform-origin:224.94px 335.77px" id="prefix__eld0okfn4p4t" class="prefix__animable" fill="#e0e0e0"/><path d="M313 257.82c1.3.58 26 39.57 28.8 49.95s-.42 36.34-1.29 41.16-13.53 65.44-14 67.1-19.73 8.89-33.1.52l-1.7-23s-2.28-24.95-1.82-32l.47-7 .22-24.37-5.6-14.4c-1.67-1.62-2.35-3.33-2-5.14l-3.56-9.13-12.38-8.91s-1.72-11.33 8.76-26.39 30.31-21 30.31-21z" style="transform-origin:304.928px 332.862px" id="prefix__eltjcw87pu71" class="prefix__animable" fill="#e0e0e0"/><path d="M196.24 336.88A7 7 0 01198 336a36 36 0 015.17-1.56A70.73 70.73 0 01221 333c1.75.1 3.45.14 5.1.34a46.41 46.41 0 014.71.75 58.12 58.12 0 017.69 2.24 50.67 50.67 0 014.95 2.09 8 8 0 011.7.95 14.63 14.63 0 01-1.82-.73c-1.17-.48-2.86-1.16-5-1.88a66.65 66.65 0 00-7.66-2.09 59.42 59.42 0 00-9.7-1 77.11 77.11 0 00-17.68 1.21 42.9 42.9 0 00-5.18 1.35c-1.21.4-1.85.69-1.87.65z" style="transform-origin:220.695px 336.147px" id="prefix__eldm7tjtmbw19" class="prefix__animable" fill="#263238"/><path d="M197.59 342.89a66 66 0 0125.35-3.55 95 95 0 0122.63 4.31l.08 3.75s-15.38-3.16-22.15-3.52c-8.42-.44-25.06 2.93-25.06 2.93z" style="transform-origin:221.62px 343.318px" id="prefix__elc2z1ldem4iu" class="prefix__animable" fill="#9b59b6"/><path d="M282.72 310.66a12.75 12.75 0 011.12-1.83 20.07 20.07 0 011.48-2 31.9 31.9 0 012.14-2.59 40.72 40.72 0 012.86-2.94c1.05-1.05 2.29-2 3.58-3.11a60.74 60.74 0 019.22-5.9 62.94 62.94 0 0110.32-4.05c1.66-.43 3.23-.88 4.74-1.13s2.91-.5 4.2-.66 2.47-.21 3.49-.28a22.55 22.55 0 012.65-.06 14.06 14.06 0 012.25.11 16.2 16.2 0 01-2.24.14c-.73 0-1.61.05-2.63.17s-2.19.15-3.45.38-2.67.38-4.15.73-3 .73-4.67 1.17a65.34 65.34 0 00-10.17 4.05 62.84 62.84 0 00-9.15 5.79c-1.28 1.05-2.53 2-3.58 3s-2 1.95-2.89 2.86-1.57 1.76-2.21 2.5-1.16 1.42-1.57 2a13.22 13.22 0 01-1.34 1.65z" style="transform-origin:306.745px 298.378px" id="prefix__el5hliujuzfgw" class="prefix__animable" fill="#263238"/><path d="M285.37 316.05a12.75 12.75 0 011.12-1.83 20.07 20.07 0 011.48-2 32.18 32.18 0 012.15-2.59 38.7 38.7 0 012.86-2.94c1-1 2.28-2 3.57-3.11a59.61 59.61 0 019.23-5.9 62.51 62.51 0 0110.31-4.05c1.66-.44 3.23-.88 4.74-1.13s2.91-.51 4.2-.66 2.47-.22 3.5-.29a24.52 24.52 0 012.64-.05 14.41 14.41 0 012.26.11 16.66 16.66 0 01-2.25.14c-.72 0-1.61.05-2.63.17s-2.18.15-3.45.38-2.67.38-4.15.73-3 .72-4.67 1.17a65.34 65.34 0 00-10.17 4A62.84 62.84 0 00297 304c-1.28 1.05-2.53 2-3.58 3s-2 2-2.89 2.86-1.57 1.76-2.21 2.5a24.8 24.8 0 00-1.56 2 13.71 13.71 0 01-1.39 1.69z" style="transform-origin:309.4px 303.768px" id="prefix__el8cw8hgdpbyq" class="prefix__animable" fill="#263238"/><path style="transform-origin:253.04px 262.475px" id="prefix__el4iwodgkzp3q" class="prefix__animable" fill="#e0e0e0" d="M301.9 232.4l-38.37-4.82-63.61 6.64.71 25.04-1.43 1.38 51.3 36.73 5.3-4.42 11.27-.36 39.81-45.52-4.98-14.67z"/><path d="M308.65 250.77a21 21 0 01-2.38.56 53.74 53.74 0 00-6.35 1.86 49.23 49.23 0 00-18 11.28 44.69 44.69 0 00-12.37 23.59 18.17 18.17 0 01-.44 2.25 2.24 2.24 0 010-.59c0-.39.06-1 .17-1.69a37.27 37.27 0 011.34-6.13 43.25 43.25 0 0110.75-17.9 47.78 47.78 0 0118.38-11.27 45.56 45.56 0 016.47-1.68c.77-.15 1.39-.21 1.8-.27a2.31 2.31 0 01.63-.01z" style="transform-origin:288.87px 270.532px" id="prefix__elxsbvq75vtqg" class="prefix__animable" fill="#263238"/><path d="M253.44 294.88a2.24 2.24 0 01-.39-.48l-1-1.44c-.41-.63-.94-1.4-1.61-2.25s-1.37-1.86-2.29-2.88-1.85-2.18-3-3.32-2.38-2.34-3.71-3.58a74.07 74.07 0 00-9.57-7.09 76.84 76.84 0 00-10.77-5.4c-1.74-.65-3.39-1.31-5-1.77s-3.08-.92-4.46-1.26-2.64-.59-3.74-.82-2.07-.39-2.86-.49l-1.81-.29c-.42-.08-.64-.12-.63-.15a2.82 2.82 0 01.64 0l1.84.17a26.29 26.29 0 012.89.38c1.12.21 2.41.38 3.79.74s2.92.67 4.52 1.19 3.29 1.08 5.06 1.73a72.58 72.58 0 0110.91 5.41 70.45 70.45 0 019.62 7.2c1.34 1.26 2.63 2.43 3.71 3.65s2.09 2.33 2.95 3.4 1.58 2.08 2.22 3a23 23 0 011.52 2.32c.36.6.65 1.1.89 1.51a1.89 1.89 0 01.28.52z" style="transform-origin:228.02px 279.261px" id="prefix__elkdl7k3ujsj" class="prefix__animable" fill="#263238"/><path d="M192.26 300.41a14.74 14.74 0 012.06-1 22.74 22.74 0 012.5-1c1-.35 2.11-.8 3.41-1.13l2-.56c.7-.19 1.45-.32 2.22-.49 1.54-.36 3.21-.56 5-.8a58 58 0 0122.86 1.92c1.68.53 3.29 1 4.73 1.62.72.3 1.44.54 2.1.85l1.87.89a35.18 35.18 0 013.14 1.68 21.51 21.51 0 012.27 1.42 17.18 17.18 0 011.83 1.33 13.6 13.6 0 01-2-1.12 26.23 26.23 0 00-2.31-1.32c-.93-.47-1.94-1.08-3.16-1.58l-1.88-.85c-.65-.29-1.37-.52-2.09-.8-1.43-.59-3-1-4.7-1.55a65.49 65.49 0 00-11.19-2 66.24 66.24 0 00-11.41.12c-1.73.23-3.4.4-4.92.74-.76.16-1.51.27-2.21.44l-2 .52c-1.29.3-2.41.72-3.41 1a25.76 25.76 0 00-2.53.91 15.93 15.93 0 01-2.18.76z" style="transform-origin:220.255px 300.093px" id="prefix__ely8kp06o50jr" class="prefix__animable" fill="#263238"/><path d="M191.68 309.92a15.15 15.15 0 012-.92l1.11-.46 1.36-.45c1-.31 2.08-.71 3.35-1l2-.49c.7-.15 1.43-.27 2.18-.41 1.5-.31 3.14-.45 4.85-.67a70.79 70.79 0 0111.21 0 75 75 0 0111.05 1.8c1.66.45 3.25.85 4.68 1.35s2.78.95 4 1.43 2.26 1 3.19 1.38a25.54 25.54 0 012.34 1.16 13.7 13.7 0 011.92 1.11 14.48 14.48 0 01-2-.89c-.65-.31-1.44-.68-2.39-1.06s-2-.86-3.21-1.27-2.52-.93-4-1.35-3-.85-4.66-1.28a80.25 80.25 0 00-10.95-1.74 75.92 75.92 0 00-11.09 0c-1.7.19-3.32.31-4.81.6-.74.13-1.47.23-2.16.37l-2 .44c-1.27.26-2.37.62-3.36.9l-1.36.39-1.13.41a14.17 14.17 0 01-2.12.65z" style="transform-origin:219.3px 309.524px" id="prefix__el1u52rlfpiw8" class="prefix__animable" fill="#263238"/><path d="M194.91 323.7a25.83 25.83 0 013.45-2.44c2.18-1.45 5.22-3.4 8.6-5.53l6.8-4.21-.12.24c-.08-1.86-.12-3.4-.13-4.47a6.63 6.63 0 01.07-1.7 6.6 6.6 0 01.26 1.68c.11 1.07.24 2.61.38 4.46v.15l-.14.09-6.74 4.3c-3.38 2.13-6.47 4-8.72 5.37a27 27 0 01-3.71 2.06z" style="transform-origin:204.565px 314.645px" id="prefix__elo4heyd086hb" class="prefix__animable" fill="#263238"/><path d="M207.14 384.58a8 8 0 011.17-1.29 18.63 18.63 0 011.51-1.39c.62-.51 1.3-1.14 2.14-1.71a30.22 30.22 0 012.77-1.87c1-.66 2.17-1.24 3.37-1.87a47.82 47.82 0 018.35-3.12 48.53 48.53 0 018.86-1.39c1.39 0 2.7-.11 3.93 0s2.37.13 3.41.25 2 .29 2.78.43a17.57 17.57 0 012.07.45 9.86 9.86 0 011.72.53c0 .13-2.51-.57-6.62-.95-1-.09-2.16-.18-3.37-.17s-2.51 0-3.87.1a50.78 50.78 0 00-8.72 1.42 49.75 49.75 0 00-8.24 3c-1.2.61-2.35 1.16-3.36 1.79s-1.95 1.21-2.78 1.78c-3.26 2.3-5.01 4.11-5.12 4.01z" style="transform-origin:228.18px 378.238px" id="prefix__elfj7b5raawof" class="prefix__animable" fill="#263238"/><path d="M209.75 391.42a8.9 8.9 0 011.15-1.2c.39-.37.87-.82 1.47-1.3s1.25-1.06 2.06-1.6a44.16 44.16 0 015.84-3.59 50.52 50.52 0 017.85-3.18 53.12 53.12 0 018.36-1.77 47.59 47.59 0 017-.31c1 0 1.89.1 2.68.16a17.65 17.65 0 012 .24 8.89 8.89 0 011.68.33c0 .13-2.44-.26-6.38-.28a53 53 0 00-6.89.46 50.76 50.76 0 00-16 4.87 49.48 49.48 0 00-5.84 3.43c-3.17 2.18-4.88 3.84-4.98 3.74z" style="transform-origin:229.795px 384.937px" id="prefix__elhdzidckuvhw" class="prefix__animable" fill="#263238"/><path d="M339.43 352.38a11.58 11.58 0 01-1.87-.52c-.59-.19-1.31-.41-2.16-.63s-1.81-.53-2.9-.75a71.25 71.25 0 00-7.67-1.39 69.66 69.66 0 00-19.06.27 71 71 0 00-7.62 1.6c-1.08.26-2 .58-2.87.83s-1.56.49-2.14.7a11 11 0 01-1.85.56 11 11 0 011.75-.8c.57-.24 1.27-.53 2.11-.8s1.78-.64 2.86-.93a63.18 63.18 0 017.66-1.75 70.11 70.11 0 019.61-.85 70.86 70.86 0 019.64.58 62.47 62.47 0 017.71 1.53c1.09.26 2 .59 2.89.85s1.56.52 2.13.75a11.21 11.21 0 011.78.75z" style="transform-origin:315.36px 350.484px" id="prefix__elcgyewu7ner7" class="prefix__animable" fill="#263238"/><path d="M338.1 359a10 10 0 01-1.9-.37c-1.2-.29-3-.66-5.14-1s-4.81-.73-7.73-1a89.27 89.27 0 00-9.54-.2 88 88 0 00-9.49.9c-2.89.46-5.47 1-7.62 1.55s-3.86 1-5 1.41a9.76 9.76 0 01-1.86.51 11.47 11.47 0 011.77-.74 52.52 52.52 0 015-1.62 71.51 71.51 0 017.64-1.7 83.87 83.87 0 019.58-1 80.72 80.72 0 019.62.26 73.71 73.71 0 017.76 1.12c2.19.44 3.94.88 5.12 1.25a11.2 11.2 0 011.79.63z" style="transform-origin:313.96px 358.249px" id="prefix__elogd762hgdd" class="prefix__animable" fill="#263238"/><path d="M342.82 315.52c-8-6-19.68-7.07-29.29-3.81s-17.43 10.08-23.3 17.88l-1.84-5.12c5.87-7.8 14.59-15.07 24.2-18.32s21.71-2.22 29.67 3.76a28.46 28.46 0 01.56 5.61z" style="transform-origin:315.605px 316.962px" id="prefix__el6utg4v8jx0b" class="prefix__animable" fill="#9b59b6"/><g id="prefix__elxt40atva1b"><g style="transform-origin:218.542px 309.391px" class="prefix__animable" id="prefix__ell2c6skzt03" opacity=".3"><path d="M193.82 309.07c.67 1.49 3.72 2.38 5.78 1.95 2.61-.55 6.13-2.76 8.2-3.1 12-1.93 19.89 4.92 34.33 5.26.28 0 .58.15.83 0a.67.67 0 00.18-.95 2.05 2.05 0 00-.88-.67c-14.59-7.42-32.49-7.66-48.44-2.51" id="prefix__el2fh6cgfm7vq" class="prefix__animable" style="transform-origin:218.542px 309.391px"/></g></g><g id="prefix__elm3omkjvp5t"><g style="transform-origin:307.315px 303.745px" class="prefix__animable" id="prefix__elg3b0bcz9rbh" opacity=".3"><path d="M286.32 315.66c7.29-5.1 12-13.24 20.2-17 7-3.23 15.7-2.74 22.19-6.83-17.07.63-33.56 9.43-42.79 22.82" id="prefix__el5txzlyxci1x" class="prefix__animable" style="transform-origin:307.315px 303.745px"/></g></g><path d="M291.68 420c11.76 6 26.5 5.32 37.84-1.15a3 3 0 00.73-4.36 3.58 3.58 0 00-4.67-.68c-9.42 5.38-21.61 5.36-31.22.48a3.48 3.48 0 00-4.41 1.6c-.78 1.66.14 3.3 1.73 4.11z" style="transform-origin:310.276px 418.68px" id="prefix__el77pmc06rxtg" class="prefix__animable" fill="#263238"/><path d="M227 440.82q15.67-4.32 31.73-7.31a3.25 3.25 0 002.93-3.46 3.33 3.33 0 00-3.71-2.73q-16.88 3.15-33.4 7.69a3.08 3.08 0 00-1.89 4 3.51 3.51 0 004.34 1.77z" style="transform-origin:242.065px 434.139px" id="prefix__el7nrgq3pdf86" class="prefix__animable" fill="#263238"/><path d="M335.79 365.19s6.93 8.23 6.24 11.88-8.95 29.7-8.95 29.7l-5.21 3.1z" style="transform-origin:334.974px 387.53px" id="prefix__el2dw6rr1gt5k" class="prefix__animable" fill="#e0e0e0"/><path d="M327.83 409.39c-.19 0 1.88-10.67 4.64-23.75S337.6 362 337.79 362s-1.89 10.66-4.64 23.75-5.15 23.67-5.32 23.64z" style="transform-origin:332.81px 385.695px" id="prefix__el2m8o712enb" class="prefix__animable" fill="#263238"/><path d="M209.2 404.33a3.76 3.76 0 011.33-4.36c3.83-2.9 11.32-7.93 13.29-6.16s6.61 19.79 8.37 27.05a3.82 3.82 0 01-2.3 4.37l-7.47 3.28a3.54 3.54 0 01-4.72-1.83z" style="transform-origin:220.623px 411.135px" id="prefix__elnzd5c5a11ji" class="prefix__animable" fill="#e0e0e0"/><path d="M209.2 404.33a4.46 4.46 0 01.39.83c.26.62.59 1.43 1 2.44.86 2.19 2.07 5.25 3.54 9 .74 1.91 1.55 4 2.41 6.23.44 1.12.88 2.28 1.34 3.47a3.14 3.14 0 002.74 2.2 3.49 3.49 0 001.93-.38l2-.89 4.16-1.84a7.88 7.88 0 002-1 3.5 3.5 0 001.13-1.73 3.64 3.64 0 00-.06-2.09c-.18-.74-.37-1.49-.55-2.24-1.5-6-3-11.73-4.56-16.87a36.59 36.59 0 00-2.73-7.05c-.52-1-2-.66-3-.34a20.43 20.43 0 00-3 1.35c-1.87 1-3.47 2.06-4.87 3l-1.91 1.34a5.19 5.19 0 00-1.4 1.29 3.8 3.8 0 00-.66 2.42c.06.58.18.88.15.89a2.64 2.64 0 01-.29-.88 3.75 3.75 0 01.57-2.57 5.23 5.23 0 011.42-1.39c.57-.44 1.2-.9 1.89-1.39a50.36 50.36 0 014.85-3.1 19.68 19.68 0 013.1-1.43 6.33 6.33 0 011.85-.39 2.45 2.45 0 011 .19 1.94 1.94 0 01.76.71 36.72 36.72 0 012.87 7.18c1.61 5.15 3.12 10.87 4.62 16.89.18.76.37 1.5.55 2.25a4.22 4.22 0 010 2.39 4 4 0 01-1.34 2 4.32 4.32 0 01-1.06.67L229 426l-4.16 1.82-2 .88a4.22 4.22 0 01-2.28.43 3.76 3.76 0 01-3.24-2.61L216 423q-1.26-3.37-2.33-6.26c-1.39-3.77-2.52-6.86-3.34-9.07l-.87-2.47a5 5 0 01-.26-.87z" style="transform-origin:220.768px 411.179px" id="prefix__eli9e0daz65fj" class="prefix__animable" fill="#263238"/><path d="M340.84 315.94a17.45 17.45 0 01-2.14-.41 55.32 55.32 0 00-5.86-.89 52.1 52.1 0 00-19.3 1.73A49.62 49.62 0 00292.3 329a14.61 14.61 0 01-1.52 1.47s.09-.17.31-.45.54-.69 1-1.19a40.88 40.88 0 014.17-4 47.42 47.42 0 0117.07-9 49.82 49.82 0 0119.57-1.56 44.46 44.46 0 015.86 1.09c.69.17 1.2.35 1.55.45a2.09 2.09 0 01.53.13z" style="transform-origin:315.81px 322.194px" id="prefix__el8h8gdzj1l9l" class="prefix__animable" fill="#263238"/><path d="M342.39 323a13.83 13.83 0 01-2.08-.25c-.66-.11-1.48-.23-2.43-.33s-2-.27-3.21-.34a81.69 81.69 0 00-8.42-.31 81 81 0 00-20.33 2.89 83.41 83.41 0 00-7.92 2.64c-1.12.4-2.09.86-3 1.22s-1.61.7-2.21 1a13.23 13.23 0 01-1.9.82 12.15 12.15 0 011.77-1c.58-.32 1.3-.7 2.17-1.09s1.82-.89 2.93-1.32a71.71 71.71 0 017.95-2.79 75 75 0 0120.5-2.92 72.12 72.12 0 018.48.45c1.2.1 2.28.3 3.22.44s1.76.29 2.42.44a12.17 12.17 0 012.06.45z" style="transform-origin:316.64px 325.779px" id="prefix__el5xfcw1sm1dg" class="prefix__animable" fill="#263238"/><path d="M199.27 352a10.3 10.3 0 011.62-.92 17.55 17.55 0 012-.95c.79-.34 1.67-.76 2.7-1.11a50.69 50.69 0 017.34-2.12 53.63 53.63 0 0118.74-.55 52.09 52.09 0 017.47 1.68c1 .29 2 .66 2.77.95a19 19 0 012 .83 10.74 10.74 0 011.68.83c-.06.12-2.48-1-6.63-2.17a56.13 56.13 0 00-7.42-1.53 56.31 56.31 0 00-18.5.55 55.49 55.49 0 00-7.3 2c-4.06 1.39-6.4 2.66-6.47 2.51z" style="transform-origin:222.43px 348.894px" id="prefix__el986g0vg5ki" class="prefix__animable" fill="#263238"/><path d="M246 352.43a9.39 9.39 0 01-1.8.06h-4.9c-4.13 0-9.84.21-16.12.74s-11.93 1.33-16 2l-4.82.82a10.64 10.64 0 01-1.78.24 8.38 8.38 0 011.73-.49c1.12-.28 2.75-.63 4.78-1a158.11 158.11 0 0132.22-2.73c2.07 0 3.74.11 4.9.19a10.05 10.05 0 011.79.17z" style="transform-origin:223.29px 354.167px" id="prefix__el3uoazrmr6yv" class="prefix__animable" fill="#263238"/><path d="M200 225.42s27.74 7.23 58.14 6 42.31-7.14 42.31-7.14l1.8 10.22s-36.94 14.34-103.51.78c.02-.02-.54-7.65 1.26-9.86z" style="transform-origin:250.461px 232.695px" id="prefix__elg2e8ot1n9" class="prefix__animable" fill="#9b59b6"/><path style="transform-origin:215.075px 233.515px" id="prefix__elbotz6s80f1a" class="prefix__animable" fill="#e0e0e0" d="M211.71 227.68l-.73 10.9 7.04.96 1.15-12.05-7.46.19z"/><path style="transform-origin:287.465px 232.405px" id="prefix__els5f7j3rhfxa" class="prefix__animable" fill="#e0e0e0" d="M282.58 228.21l2.73 10.62 7.04-1.01-2.7-11.84-7.07 2.23z"/><path style="transform-origin:233.73px 235.89px" id="prefix__el7cgbp21f6ah" class="prefix__animable" fill="#263238" d="M237.85 241.45l-9.49-1.02 1.25-10.1 9.49 1.02-1.25 10.1z"/><g id="prefix__el3y5y6jwj3cn"><g style="transform-origin:216.594px 226.655px" class="prefix__animable" id="prefix__elf0rc5je10nl" opacity=".3"><path d="M233.42 215.21c-9.76 5.39-23.29 11-33 16.44l-1 6.45c8.22-2.75 18.28-6.36 25.42-11.27 2-1.38 5.86-4 7.32-6s2.04-3.31 1.26-5.62z" id="prefix__el8tg9n9cmktp" class="prefix__animable" style="transform-origin:216.594px 226.655px"/></g></g><path d="M179.9 203.52c-7.2 3.52-15.09 9.08-14.15 18.19.85 8.3 9 11.77 16.38 12.42 18.78 1.65 37.39-7.73 52.88-17.27 5-3.08.41-11-4.62-7.9-11.52 7.1-23.88 13.6-37.44 15.59-4.64.68-12.47 1.82-16.57-1.38-5.94-4.64 5.54-10 8.74-11.61l-.12-9.8a33.84 33.84 0 00-5.1 1.76z" style="transform-origin:201.421px 218.04px" id="prefix__elvb1zn8oh2hs" class="prefix__animable" fill="#e0e0e0"/><path d="M179.9 203.52a9.67 9.67 0 011.25-.58 35.6 35.6 0 013.83-1.26h.1v.11c0 2.45.11 5.75.18 9.8v.08h-.08a47.78 47.78 0 00-6.42 3.64 12.93 12.93 0 00-3 2.8 4.11 4.11 0 00-.83 1.93 2.77 2.77 0 00.63 2 7.64 7.64 0 003.95 2.4 19.25 19.25 0 005 .65 64.43 64.43 0 0010.84-1.18 85.27 85.27 0 0023-8.36c3.87-2 7.74-4.25 11.63-6.63a5.23 5.23 0 01.78-.42 2.78 2.78 0 01.84-.33 4 4 0 011.81-.12 4.67 4.67 0 013 2 5.32 5.32 0 011 3.46 4.45 4.45 0 01-1.72 3.2 153.8 153.8 0 01-18.44 10.17c-3.1 1.4-6.18 2.71-9.28 3.75-1.54.57-3.1 1-4.63 1.47s-3.08.84-4.61 1.13a55.23 55.23 0 01-17.68 1 24.51 24.51 0 01-7.74-2.22 14.48 14.48 0 01-5.72-4.72 12.17 12.17 0 01-2-6.42 13.22 13.22 0 011.11-5.91 18.9 18.9 0 016.18-7.29 35.41 35.41 0 015.16-3.21c.62-.33 1.1-.55 1.42-.71l.49-.22s-.15.1-.47.27-.78.4-1.39.75a38.12 38.12 0 00-5.09 3.28 18.88 18.88 0 00-6 7.25 13.1 13.1 0 00-1 5.78 11.83 11.83 0 002 6.22 14.21 14.21 0 005.59 4.57 24.24 24.24 0 007.62 2.15 55 55 0 0017.53-1.06c12.17-2.61 24.67-8.81 36.73-16.46a3.9 3.9 0 001.53-2.82 4.76 4.76 0 00-.92-3.13 4.2 4.2 0 00-2.66-1.74 3.61 3.61 0 00-1.6.1 2.68 2.68 0 00-.75.3 5.27 5.27 0 00-.73.4c-3.9 2.38-7.78 4.64-11.67 6.63a84.86 84.86 0 01-23.15 8.36 63.2 63.2 0 01-10.94 1.15 19.42 19.42 0 01-5.09-.68 8 8 0 01-4.13-2.55 3.23 3.23 0 01-.69-2.27 4.62 4.62 0 01.9-2.1 13.59 13.59 0 013.13-2.87 47.55 47.55 0 016.49-3.61l-.07.12c0-4.05-.05-7.35-.07-9.8l.1.08c-1.71.45-3 .87-3.84 1.18-.43.16-.74.29-1 .38a1.27 1.27 0 01-.41.11z" style="transform-origin:201.499px 218.106px" id="prefix__elwq9e3qznqsm" class="prefix__animable" fill="#263238"/></g><defs><filter id="prefix__active" height="200%"><feMorphology in="SourceAlpha" result="DILATED" operator="dilate" radius="2"/><feFlood flood-color="#32DFEC" flood-opacity="1" result="PINK"/><feComposite in="PINK" in2="DILATED" operator="in" result="OUTLINE"/><feMerge><feMergeNode in="OUTLINE"/><feMergeNode in="SourceGraphic"/></feMerge></filter><filter id="prefix__hover" height="200%"><feMorphology in="SourceAlpha" result="DILATED" operator="dilate" radius="2"/><feFlood flood-color="red" flood-opacity=".5" result="PINK"/><feComposite in="PINK" in2="DILATED" operator="in" result="OUTLINE"/><feMerge><feMergeNode in="OUTLINE"/><feMergeNode in="SourceGraphic"/></feMerge><feColorMatrix values="0 0 0 0 0 0 1 0 0 0 0 0 0 0 0 0 0 0 1 0"/></filter></defs></svg>
